<?xml version="1.0" standalone="no"?>
<!DOCTYPE svg PUBLIC "-//W3C//DTD SVG 20010904//EN"
 "http://www.w3.org/TR/2001/REC-SVG-20010904/DTD/svg10.dtd">
<svg version="1.0" xmlns="http://www.w3.org/2000/svg"
 width="1024.000000pt" height="1024.000000pt" viewBox="0 0 1024.000000 1024.000000"
 preserveAspectRatio="xMidYMid meet">
<metadata>
Created by potrace 1.14, written by Peter Selinger 2001-2017
</metadata>
<g transform="translate(0.000000,1024.000000) scale(0.100000,-0.100000)"
fill="#000000" stroke="none">
<path d="M4873 8046 c-28 -9 -132 -79 -167 -111 -6 -5 -38 -28 -70 -50 -103
-69 -178 -134 -218 -188 -49 -66 -100 -169 -100 -202 0 -14 -4 -26 -9 -26 -5
-1 -17 -2 -26 -3 -44 -5 -64 -20 -82 -62 -23 -51 -37 -54 -96 -23 -114 61
-238 73 -345 31 -8 -3 -18 -6 -21 -6 -17 -2 -99 -69 -125 -101 -70 -87 -91
-243 -45 -339 51 -105 157 -178 267 -184 48 -3 89 28 99 75 4 15 12 44 19 63
22 66 85 45 119 -40 15 -40 15 -63 -1 -101 -13 -32 -80 -99 -99 -99 -7 0 -13
-4 -13 -9 0 -11 -89 -25 -141 -23 -130 5 -331 164 -407 322 -22 46 -26 69 -26
140 0 101 4 122 38 186 30 56 32 71 11 94 -19 21 -62 15 -76 -11 -10 -19 -13
-87 -6 -124 5 -25 -10 -56 -26 -52 -7 1 -29 28 -49 60 -41 62 -62 71 -72 31
-8 -32 12 -66 54 -91 17 -10 29 -24 28 -33 -6 -27 -37 -22 -81 14 -37 31 -137
82 -137 71 0 -2 -17 2 -37 9 -47 15 -143 14 -204 -3 -104 -29 -190 -143 -165
-218 16 -49 86 -13 86 44 0 74 95 146 189 144 47 -1 53 -2 106 -16 52 -13 185
-87 221 -121 36 -36 42 -55 22 -72 -16 -12 -29 -7 -103 44 -88 60 -134 80
-195 82 -63 3 -102 -16 -143 -70 -22 -29 -51 -111 -42 -120 2 -2 6 -43 9 -91
7 -102 -1 -127 -43 -127 -30 0 -41 18 -41 71 0 45 -83 99 -143 93 -46 -5 -113
-42 -150 -85 -62 -70 -90 -28 -71 103 8 55 -8 104 -37 113 -25 8 -60 45 -53
56 10 17 -26 78 -55 94 -17 8 -31 13 -31 10 0 -3 -9 -1 -19 4 -14 8 -18 20
-16 48 3 47 -9 73 -35 73 -29 0 -43 -35 -35 -91 6 -43 4 -51 -17 -71 -46 -43
-61 -76 -63 -141 -1 -48 -8 -74 -30 -110 -32 -55 -36 -107 -11 -154 19 -37 21
-76 5 -105 -10 -19 -13 -18 -53 28 -57 64 -92 66 -225 12 -206 -83 -247 -89
-297 -40 -20 20 -32 27 -26 16 23 -43 88 -84 117 -74 35 12 45 1 45 -51 0 -44
-3 -50 -31 -65 -89 -45 -157 -12 -184 91 -11 40 -10 35 -19 80 -14 65 -16 86
-23 172 -5 69 -3 84 10 89 8 3 24 1 35 -5 15 -8 19 -20 17 -58 -1 -26 1 -59 5
-73 3 -14 6 16 7 65 0 50 4 108 8 130 14 87 15 136 2 141 -7 2 -14 15 -14 27
-6 72 -29 89 -67 50 -31 -31 -27 -42 7 -20 34 22 50 7 49 -48 -2 -65 -9 -84
-31 -78 -15 4 -21 -4 -31 -46 -9 -37 -15 -48 -27 -44 -12 5 -13 17 -8 66 4 33
11 73 15 89 5 15 5 28 1 28 -10 0 -35 -107 -48 -210 -2 -19 -5 -46 -7 -60 -17
-125 -21 -195 -26 -395 -2 -86 -12 -121 -31 -109 -5 3 -9 -9 -9 -27 0 -21 -8
-39 -25 -55 l-26 -24 25 -48 c13 -26 27 -65 30 -87 4 -22 11 -69 17 -105 14
-82 19 -254 9 -271 -7 -10 -21 -7 -67 14 -52 23 -110 48 -123 52 -3 1 -18 7
-35 14 -92 39 -415 137 -480 147 -11 1 -20 3 -20 4 0 2 -9 4 -20 6 -11 1 -66
12 -123 23 -56 12 -126 24 -155 27 -28 3 -69 9 -89 14 -20 4 -39 5 -43 2 -3
-3 -5 -52 -5 -109 0 -75 3 -103 13 -104 6 0 19 -2 27 -4 8 -1 35 -6 60 -9 25
-4 56 -9 70 -11 14 -3 34 -7 46 -9 193 -37 612 -218 815 -353 93 -62 122 -114
143 -258 7 -55 14 -107 14 -115 -1 -13 3 -64 17 -225 2 -27 7 -95 11 -150 3
-55 8 -109 9 -120 2 -11 6 -38 10 -60 33 -233 108 -418 186 -466 21 -13 39
-27 39 -30 0 -7 65 4 93 16 9 4 17 11 17 17 0 5 5 6 11 3 6 -4 8 -14 5 -22 -3
-8 -9 -40 -12 -71 -7 -65 -10 -73 -27 -66 -7 2 -21 -2 -32 -10 -28 -20 -29
-127 -2 -153 18 -17 19 -17 44 11 l25 30 27 -33 c35 -43 65 -36 87 19 14 34
21 39 57 46 23 3 51 13 62 20 26 18 35 18 35 -3 0 -15 -40 -82 -66 -109 -6 -7
-29 -49 -53 -95 -63 -126 -67 -213 -13 -276 36 -42 83 -45 118 -7 13 14 24 29
24 33 0 4 7 22 15 39 9 17 18 39 20 49 2 10 13 52 25 93 11 41 23 98 26 125 8
65 16 81 32 63 6 -8 14 -29 17 -47 3 -18 16 -58 29 -89 24 -55 24 -56 5 -82
-37 -49 -26 -139 19 -160 15 -7 34 -16 42 -20 9 -4 15 -22 16 -41 1 -71 4 -78
34 -94 28 -15 33 -14 60 2 32 19 45 59 34 103 -11 42 -7 68 15 98 12 17 21 41
21 54 0 13 6 33 14 44 13 17 16 18 31 3 13 -13 19 -30 29 -84 1 -6 12 -28 24
-48 12 -21 22 -41 22 -43 0 -24 124 -109 175 -120 44 -9 82 -16 90 -17 20 0
97 13 106 18 18 12 20 -24 3 -61 -10 -21 -18 -58 -18 -82 -1 -36 4 -48 24 -63
82 -59 212 0 212 98 0 41 -11 55 -46 58 -19 2 -31 -5 -47 -26 -11 -16 -17 -29
-14 -29 3 0 -3 -14 -15 -30 -23 -32 -50 -39 -69 -16 -14 16 -12 29 9 70 27 51
64 71 132 71 51 0 63 -4 79 -24 24 -30 24 -62 -1 -94 -31 -39 -27 -57 9 -37
17 9 81 -6 81 -20 0 -3 4 -11 8 -18 14 -21 39 -4 36 25 -3 31 32 69 72 79 16
4 53 1 84 -6 88 -21 124 -16 162 20 l33 32 3 -25 c2 -14 10 -28 18 -31 15 -6
34 11 96 84 34 39 53 32 35 -13 -16 -38 -12 -57 13 -57 21 0 34 28 21 44 -11
13 11 64 32 78 35 22 56 -9 77 -119 l13 -63 -32 -35 c-59 -67 -34 -121 61
-132 70 -8 116 40 99 101 -11 42 4 70 75 137 60 56 77 63 104 41 35 -28 31
-92 -5 -92 -22 0 -18 -27 7 -44 28 -20 47 -5 52 40 2 16 4 32 5 37 4 27 59
-23 67 -63 18 -83 55 -113 97 -79 14 10 28 19 31 19 3 0 19 -20 35 -44 36 -52
76 -72 156 -80 133 -13 206 -41 236 -90 16 -27 17 -33 4 -53 -8 -12 -12 -29
-9 -37 7 -19 6 -19 41 -4 15 6 33 10 38 9 6 -2 31 -3 56 -2 38 0 51 -5 69 -27
27 -31 37 -17 21 28 -12 37 -7 54 25 75 71 46 222 2 265 -78 6 -10 12 -34 14
-53 4 -44 -30 -73 -64 -54 -21 11 -29 30 -35 86 -4 40 -11 51 -44 68 -55 28
-98 -16 -89 -88 4 -32 15 -49 47 -78 39 -34 78 -48 150 -53 29 -1 80 44 81 72
0 10 1 42 1 71 0 28 4 52 9 52 5 0 27 -11 47 -25 75 -50 148 -69 262 -70 94 0
111 3 162 27 34 16 80 51 116 89 72 73 97 75 87 7 -4 -24 -8 -45 -10 -47 -3
-2 -1 -11 4 -20 23 -45 21 -68 -9 -100 -66 -68 -21 -160 75 -152 25 3 65 46
65 70 0 29 25 44 60 36 84 -19 141 61 117 162 -8 29 -6 33 25 49 18 9 57 41
85 71 29 30 57 52 62 48 9 -5 6 -68 -3 -84 -6 -10 -19 -135 -21 -206 -4 -153
58 -236 159 -213 57 13 82 32 106 79 39 76 32 161 -30 342 -38 114 -32 141 19
89 17 -17 56 -42 86 -56 45 -20 55 -29 55 -50 0 -70 52 -108 119 -89 20 6 44
13 53 17 13 6 23 -3 42 -33 34 -53 71 -56 110 -10 14 17 26 34 27 37 0 4 2 18
5 31 6 33 -20 69 -59 79 -29 8 -32 12 -29 43 1 19 4 43 7 54 2 11 4 30 4 43 1
35 25 36 62 2 39 -36 79 -54 169 -78 173 -46 398 46 595 244 60 61 63 63 188
233 125 170 181 245 187 251 3 3 23 27 45 54 104 129 188 196 268 210 35 6 64
21 85 43 26 28 27 36 7 53 -19 16 -65 5 -110 -26 -44 -29 -65 -31 -65 -4 0 13
21 35 59 63 55 38 78 71 72 103 0 6 36 32 81 58 136 76 218 184 333 442 11 22
25 34 55 43 63 19 80 70 31 95 l-28 15 49 143 c26 79 53 151 58 160 6 10 10
23 10 30 0 18 43 122 53 126 4 2 7 8 7 13 0 5 7 17 15 26 7 10 44 59 81 108
37 50 72 95 78 101 51 53 179 197 231 260 194 233 334 381 405 424 34 22 39
30 40 63 0 20 -3 37 -7 37 -3 0 -59 -32 -122 -72 -245 -153 -406 -310 -540
-525 -69 -112 -238 -464 -326 -683 -27 -65 -50 -106 -75 -130 -20 -19 -47 -51
-60 -70 -39 -59 -74 -79 -66 -37 2 12 30 76 61 142 31 66 60 129 65 140 5 11
21 58 34 105 13 47 27 92 30 100 3 8 8 31 11 50 3 19 9 51 13 70 12 62 7 243
-7 295 -13 47 -39 93 -67 122 -43 45 -127 34 -171 -22 -32 -40 -43 -43 -61
-15 -7 12 -17 18 -23 14 -15 -9 -31 -53 -34 -94 -10 -124 -42 -193 -119 -258
-55 -45 -162 -56 -285 -30 -115 26 -234 81 -524 244 -203 115 -279 131 -380
85 -48 -22 -60 -16 -59 30 1 24 11 42 41 69 58 53 65 101 25 182 -15 32 -16
41 -4 65 32 69 22 130 -33 205 l-21 28 24 32 c24 32 31 82 14 97 -5 5 -19 12
-31 15 -28 9 -63 -24 -63 -59 0 -22 -31 -51 -42 -39 -3 2 -20 6 -38 9 -46 6
-103 -20 -124 -56 -17 -29 -60 -54 -76 -44 -4 3 -22 0 -39 -6 -39 -14 -61 -55
-68 -123 -5 -53 -21 -81 -53 -89 -24 -6 -30 -1 -69 60 -51 81 -122 132 -203
147 -59 11 -154 -36 -142 -69 6 -15 -28 -44 -48 -42 -27 4 -48 28 -48 55 0 14
14 55 31 91 64 133 66 178 12 255 -57 82 -189 113 -335 80 -49 -12 -102 -22
-126 -25 -43 -6 -40 37 4 63 44 26 101 33 244 32 103 -1 134 -5 180 -23 67
-26 103 -57 131 -111 22 -41 24 -63 15 -128 -4 -25 0 -36 17 -47 50 -32 94 20
81 94 -29 162 -211 273 -444 272 -65 0 -78 -2 -137 -20 -82 -24 -93 15 -13 44
72 26 80 32 80 59 0 41 -23 49 -61 21 -98 -71 -138 -75 -117 -11 6 17 15 36
20 42 16 21 20 88 6 106 -20 26 -62 32 -83 12 -14 -14 -16 -27 -9 -73 19 -141
-13 -241 -107 -325 -48 -43 -219 -136 -250 -136 -9 0 -19 -3 -23 -7 -3 -4 -14
-8 -24 -9 -9 -2 -35 -6 -57 -10 -134 -22 -239 2 -301 68 -99 104 -82 233 39
285 24 11 30 10 48 -8 17 -17 20 -28 14 -58 -11 -52 -8 -110 6 -127 49 -59
217 -54 318 10 40 26 89 72 109 101 15 24 44 86 46 100 1 6 4 15 7 20 6 10 4
118 -3 145 -9 35 -50 107 -79 138 -85 90 -228 135 -356 111 -62 -12 -78 -1
-79 55 -1 50 -22 83 -58 88 -13 2 -19 9 -16 18 7 22 6 157 -2 210 -10 67 -34
122 -109 245 -36 61 -80 137 -97 170 -34 68 -53 88 -102 108 -27 11 -42 12
-67 3z m67 -61 c38 -24 110 -231 116 -337 4 -57 1 -75 -17 -108 -22 -38 -42
-50 -90 -50 -24 0 -68 31 -70 50 -1 6 -2 16 -3 23 -1 6 2 22 7 33 9 21 39 26
64 11 6 -4 16 -1 22 6 17 21 -14 57 -49 57 -20 0 -36 -10 -55 -32 -25 -29 -27
-37 -21 -90 6 -53 5 -61 -20 -93 -15 -20 -31 -34 -37 -32 -5 1 -15 19 -21 38
-14 40 -7 68 24 101 26 28 26 78 -1 112 -23 30 -45 33 -77 10 -31 -21 -28 -29
16 -40 33 -8 37 -12 35 -39 -3 -40 -45 -77 -81 -70 -15 2 -38 13 -52 23 -21
16 -25 27 -24 63 2 53 5 63 28 109 27 52 72 108 138 173 87 86 128 106 168 82z
m-235 -555 c9 -29 -27 -95 -51 -95 -16 0 -19 9 -22 51 -2 37 2 56 13 68 20 19
50 7 60 -24z m-409 -8 c20 -14 23 -40 5 -56 -24 -22 -47 -20 -65 5 -14 20 -13
23 7 40 24 20 36 23 53 11z m632 -10 c10 -7 9 -17 -3 -52 -28 -78 -60 -94 -71
-35 -12 68 28 116 74 87z m-141 -53 c-3 -10 -2 -21 2 -24 4 -2 7 -12 6 -22 -3
-43 -31 -56 -59 -28 -14 14 -12 20 11 60 27 43 50 51 40 14z m-1381 -44 c-4
-14 -13 -25 -21 -25 -21 0 -19 37 2 49 23 12 27 8 19 -24z m1029 -110 c52
-108 91 -226 82 -249 -6 -14 -9 -15 -21 -4 -8 7 -12 16 -9 21 2 4 -1 7 -7 7
-6 0 -14 8 -17 18 -8 19 -53 93 -125 200 -26 40 -48 78 -48 85 0 8 15 20 33
29 29 14 34 14 50 -1 11 -8 38 -56 62 -106z m-2313 43 c-7 -7 -10 -5 -7 8 5
29 6 30 12 16 3 -8 1 -18 -5 -24z m2450 14 c10 -10 8 -20 -7 -48 -25 -47 -48
-59 -68 -36 -25 28 -39 72 -27 87 13 16 86 13 102 -3z m-500 -13 c24 -7 45
-13 48 -14 3 0 24 -11 47 -23 65 -34 167 -135 221 -220 104 -164 163 -365 119
-409 -15 -15 -18 -15 -36 1 -10 9 -22 31 -25 49 -4 18 -32 84 -64 147 -45 92
-70 128 -122 180 -70 71 -109 93 -204 119 -53 14 -63 21 -77 51 -19 39 -54 49
-69 20 -7 -13 -4 -22 11 -36 l21 -19 -21 -16 c-36 -29 -91 4 -91 56 0 31 48
95 81 109 41 17 111 19 161 5z m1215 -11 c30 -24 -7 -65 -49 -55 -34 9 -42 33
-18 57 19 19 40 18 67 -2z m-475 -45 c34 -36 32 -104 -3 -139 -54 -53 -161
-38 -191 27 -21 44 -13 82 23 119 46 46 124 42 171 -7z m178 -8 c27 -9 25 -31
-5 -57 -33 -28 -53 -31 -65 -8 -11 21 -13 63 -3 73 6 7 37 3 73 -8z m181 -27
c10 -13 18 -27 18 -33 1 -5 -56 -48 -125 -95 -69 -47 -131 -90 -138 -95 -36
-33 -75 -54 -81 -45 -9 15 11 42 97 132 90 93 167 157 191 158 11 0 27 -10 38
-22z m-2949 -25 c22 -19 23 -33 4 -33 -8 0 -16 -6 -19 -12 -3 -10 -12 -9 -35
5 -38 21 -54 15 -78 -29 -12 -23 -26 -34 -40 -34 -18 0 -21 4 -16 22 19 74
135 126 184 81z m501 -37 c6 -16 -16 -40 -26 -29 -4 3 -7 15 -7 25 0 21 25 24
33 4z m233 -62 c22 -11 41 -31 57 -64 21 -42 23 -56 16 -96 -15 -77 -57 -131
-116 -146 -32 -8 -61 16 -47 39 6 10 15 18 20 18 17 1 41 20 53 42 17 33 4 67
-40 108 -42 39 -49 68 -22 97 20 22 35 23 79 2z m2507 -39 c74 -31 117 -111
92 -172 -14 -32 -52 -49 -86 -38 -28 9 -24 44 6 55 29 11 31 22 9 44 -21 22
-34 20 -65 -10 -28 -27 -26 -27 -143 -20 -67 4 -90 1 -144 -20 -125 -47 -250
-140 -356 -265 -35 -41 -78 -44 -81 -4 -4 49 115 193 249 301 65 53 232 134
294 143 75 12 180 5 225 -14z m-3130 -32 c5 -25 -2 -37 -26 -45 -4 -2 -9 -13
-11 -25 -6 -27 -63 -106 -69 -96 -7 11 -2 77 7 91 4 7 11 10 15 8 10 -7 29 7
32 24 1 8 -1 28 -6 44 -5 20 -4 31 6 36 20 13 46 -6 52 -37z m783 -12 c14 -21
31 -59 38 -83 30 -99 -18 -188 -74 -136 -18 17 -20 26 -13 66 4 26 7 80 6 120
-1 39 2 72 7 72 5 0 21 -18 36 -39z m1535 20 c29 -13 57 -18 82 -14 31 4 37 2
37 -14 0 -10 -15 -39 -32 -64 -18 -25 -44 -69 -57 -97 -40 -85 -63 -75 -74 29
-4 31 -11 77 -17 102 -10 45 -6 77 10 77 4 0 27 -9 51 -19z m-519 -28 c87 -73
162 -172 221 -293 53 -109 54 -163 3 -95 -31 41 -153 164 -158 160 -2 -2 -20
11 -41 29 -31 27 -38 40 -41 77 -5 63 -16 107 -32 120 -8 6 -14 15 -14 20 0
17 29 9 62 -18z m-867 -13 c20 -16 84 -77 141 -135 98 -98 104 -106 92 -128
-7 -12 -13 -29 -13 -37 0 -27 -48 -22 -97 9 -41 26 -53 42 -88 118 -22 48 -51
109 -65 136 -40 76 -32 86 30 37z m-1239 -62 c-4 -41 11 -63 31 -47 17 14 21
10 33 -30 5 -19 5 -33 -1 -37 -19 -11 -60 7 -71 32 -6 14 -17 23 -24 20 -22
-9 -25 11 -8 53 20 50 44 55 40 9z m854 12 c21 -21 19 -40 -4 -40 -18 0 -49
37 -41 49 9 16 23 13 45 -9z m1012 -16 c-8 -42 -57 -60 -115 -41 -32 11 -31
33 2 31 12 -1 39 7 59 17 43 21 58 19 54 -7z m2191 -30 c-3 -8 -11 -14 -18
-14 -16 0 -26 48 -11 54 15 5 36 -23 29 -40z m-3434 8 c7 -14 5 -26 -10 -48
-24 -36 -24 -56 -1 -84 17 -20 22 -22 50 -12 39 14 61 -6 45 -41 -21 -45 -106
-27 -158 35 -23 27 -26 39 -22 76 7 68 73 117 96 74z m-144 -64 c-4 -29 -8
-65 -9 -79 -4 -37 -14 -48 -37 -44 -70 14 -60 102 18 160 30 23 34 18 28 -37z
m-171 17 c3 -8 3 -21 1 -27 -6 -14 -86 -61 -93 -54 -4 4 21 55 42 84 12 17 43
15 50 -3z m939 -77 c38 -75 36 -83 -25 -87 l-38 -3 0 75 c0 111 12 114 63 15z
m1959 8 c-32 -24 -49 -47 -77 -100 -19 -37 -25 -41 -104 -63 -47 -13 -123 -44
-171 -68 -91 -47 -100 -51 -100 -36 0 15 116 128 162 158 24 15 45 30 48 34
15 16 128 73 187 93 75 25 100 17 55 -18z m-3153 -37 c17 -16 20 -24 10 -29
-7 -5 -18 -6 -25 -3 -6 2 -15 0 -19 -6 -3 -6 -15 -11 -26 -11 -16 0 -19 5 -15
28 2 15 5 30 5 35 2 15 48 6 70 -14z m267 -11 c-2 -17 -10 -23 -27 -23 -13 0
-29 -3 -36 -8 -6 -4 -15 -2 -18 4 -8 12 -2 20 17 23 7 1 22 7 33 14 29 17 35
15 31 -10z m-481 -8 c0 -11 -10 -14 -36 -12 -58 5 -131 -29 -223 -105 -22 -18
-43 -33 -48 -33 -6 0 -6 25 1 82 1 3 16 10 34 13 17 4 37 10 42 13 6 4 15 7
20 9 6 1 30 10 55 19 90 33 155 39 155 14z m1299 -15 c7 -18 -22 -82 -40 -89
-17 -6 -31 21 -28 53 3 40 55 68 68 36z m973 -11 c69 -44 32 -116 -82 -161
-40 -15 -132 -16 -175 0 -95 33 -200 104 -200 134 0 17 10 16 61 -6 33 -15 60
-19 114 -17 92 5 84 2 190 60 31 16 54 14 92 -10z m-1557 -17 c0 -7 -12 -21
-27 -32 -14 -11 -35 -39 -45 -63 -23 -52 -46 -44 -43 16 2 45 11 63 28 56 7
-2 20 9 30 26 15 25 21 28 38 20 10 -6 19 -16 19 -23z m454 21 c25 -11 33 -25
42 -72 5 -31 -30 -76 -61 -76 -38 0 -57 45 -24 55 18 6 26 35 13 47 -11 12
-40 -4 -56 -33 -24 -41 -41 -37 -34 9 7 40 45 82 76 82 11 0 30 -5 44 -12z
m-1742 -68 c3 -39 0 -45 -16 -45 -15 0 -20 8 -23 35 -1 19 0 46 3 59 8 38 33
6 36 -49z m1133 33 c4 -10 9 -38 11 -63 6 -56 30 -143 55 -194 23 -48 24 -62
4 -69 -16 -7 -61 46 -94 111 -27 53 -41 193 -21 217 17 20 36 19 45 -2z m-90
-13 c7 -6 14 -44 17 -93 6 -90 32 -158 84 -216 44 -49 39 -56 -41 -56 -38 0
-80 -4 -93 -8 -22 -8 -22 -7 -16 42 7 59 -11 108 -52 140 -29 23 -33 54 -15
120 21 75 73 107 116 71z m516 1 c42 -34 27 -138 -31 -198 -33 -36 -44 -29
-35 20 4 23 8 74 9 112 2 39 3 73 4 78 3 13 29 7 53 -12z m-761 -2 c0 -11 -68
-79 -80 -79 -4 0 -10 7 -13 15 -4 9 9 25 36 44 46 32 57 36 57 20z m3348 -14
c11 -13 31 -30 46 -36 33 -15 28 -34 -8 -33 -37 2 -72 22 -83 48 -21 46 12 63
45 21z m-3518 -14 c38 -26 69 -98 73 -166 4 -65 -8 -125 -23 -125 -6 0 -10 15
-11 33 0 17 -2 42 -5 55 -2 12 -5 30 -7 40 -6 33 -40 93 -68 120 -36 34 -40
77 -6 67 12 -4 33 -14 47 -24z m849 -13 c5 -18 8 -49 6 -69 -4 -43 -52 -146
-71 -153 -8 -3 -14 -4 -15 -3 -7 34 -9 87 -1 87 5 0 21 11 35 25 24 25 24 27
11 73 -8 25 -12 52 -10 59 10 24 34 13 45 -19z m541 18 c100 -22 165 -102 176
-213 5 -46 3 -62 -10 -72 -13 -11 -18 -10 -31 2 -8 9 -15 18 -15 22 0 17 -81
89 -136 122 -72 42 -89 67 -85 125 2 25 32 29 101 14z m-628 -21 c31 -12 29
-70 -3 -80 -10 -4 -27 -2 -36 4 -13 7 -22 6 -33 -3 -19 -17 -77 -36 -84 -29
-18 19 14 95 47 111 22 11 76 9 109 -3z m1608 -38 c16 -18 32 -40 35 -49 4
-10 11 -18 16 -18 5 0 9 -5 9 -11 0 -6 8 -23 18 -37 10 -15 23 -44 29 -65 10
-32 9 -39 -3 -44 -9 -3 -22 3 -30 16 -18 25 -45 53 -95 96 -73 64 -96 114 -67
143 19 19 55 6 88 -31z m335 23 c25 -21 -13 -73 -45 -62 -16 5 -40 31 -40 43
0 4 7 14 15 23 16 16 48 14 70 -4z m-2495 -5 c14 -9 39 -59 43 -87 2 -13 -5
-40 -16 -61 -24 -47 -26 -117 -3 -151 21 -33 21 -33 -14 -51 -16 -9 -30 -13
-30 -11 0 3 -28 -3 -62 -13 -96 -27 -102 -22 -68 52 33 70 42 107 45 187 2 30
3 64 4 76 2 31 45 74 70 69 12 -2 26 -7 31 -10z m1384 9 c20 -8 21 -44 2 -69
-13 -18 -14 -17 -30 13 -28 53 -18 74 28 56z m-1784 -24 c0 -10 -8 -25 -18
-32 -10 -7 -29 -28 -42 -45 -13 -18 -27 -33 -31 -33 -5 0 -6 63 0 92 2 11 48
34 71 35 13 1 20 -4 20 -17z m1902 -6 c10 -21 9 -41 -5 -102 -9 -43 -18 -81
-20 -87 -2 -5 -9 -36 -17 -68 -15 -67 -35 -91 -48 -58 -14 39 2 276 20 298 6
7 7 13 3 13 -4 0 -2 7 5 15 19 23 49 18 62 -11z m-1800 -51 c-1 -55 -13 -93
-36 -112 -13 -11 -20 -11 -39 2 -19 12 -23 23 -21 53 6 74 31 91 36 24 5 -61
29 -36 30 31 1 30 3 58 6 62 10 20 24 -14 24 -60z m1342 51 c12 -31 -21 -47
-43 -21 -8 10 -7 17 1 25 17 17 35 15 42 -4z m554 -10 c31 -21 28 -50 -8 -69
-16 -8 -34 -15 -40 -15 -13 0 -13 55 0 81 13 23 19 24 48 3z m-1812 -81 c29
-60 38 -163 15 -186 -14 -14 -30 1 -37 36 -8 45 -23 77 -40 84 -12 4 -14 14
-9 42 4 20 9 47 10 61 2 14 3 29 4 34 2 18 30 -17 57 -71z m-305 35 c1 -25 0
-52 -6 -85 -3 -21 -33 -73 -42 -73 -5 0 5 119 13 158 2 12 11 22 19 22 9 0 16
-10 16 -22z m3563 -24 c17 -21 42 -49 55 -61 37 -35 128 -65 198 -66 70 0 93
-20 45 -38 -105 -40 -264 -44 -336 -9 -54 27 -112 87 -122 125 -16 63 16 94
90 90 32 -1 44 -8 70 -41z m-3801 5 c7 -28 -10 -72 -26 -67 -13 5 -22 51 -13
74 8 21 33 17 39 -7z m173 -36 c-10 -26 -18 -8 -9 23 5 21 8 24 11 11 2 -10 1
-25 -2 -34z m175 15 c1 -34 -1 -61 -6 -66 -1 -1 -14 2 -28 9 -22 10 -24 15
-16 36 10 26 30 52 42 53 4 0 8 -15 8 -32z m1203 23 c10 -15 -5 -40 -20 -34
-18 7 -18 43 0 43 8 0 17 -4 20 -9z m1156 -12 c0 -5 -7 -9 -15 -9 -15 0 -20
12 -9 23 8 8 24 -1 24 -14z m2050 12 c0 -4 -27 -32 -61 -61 -33 -29 -81 -72
-105 -96 -57 -57 -107 -81 -174 -83 -68 -2 -87 8 -71 37 7 14 8 23 1 27 -23
14 -7 35 43 51 28 9 84 31 122 49 39 18 95 40 125 50 30 11 58 22 62 25 12 9
58 10 58 1z m-4903 -31 c1 -16 -2 -32 -7 -35 -6 -4 -11 -3 -11 2 -7 50 -6 63
4 63 7 0 13 -13 14 -30z m1428 7 c7 -28 -1 -77 -14 -90 -14 -14 -33 37 -27 72
2 14 5 29 5 34 2 17 31 5 36 -16z m-1140 -62 c-5 -124 -54 -232 -69 -152 -7
38 1 128 13 140 4 4 7 0 7 -10 -2 -38 19 -26 22 12 7 108 32 117 27 10z m1760
39 c44 -26 62 -64 30 -64 -8 0 -15 4 -15 9 0 16 -38 19 -66 5 -34 -18 -29 -19
-59 20 -16 21 -23 40 -19 50 9 24 71 14 129 -20z m541 30 c24 -6 42 -40 36
-68 -3 -16 -11 -18 -57 -13 -39 4 -61 0 -82 -12 -40 -24 -63 -32 -63 -21 0 16
72 88 105 104 34 18 33 18 61 10z m380 -16 c12 -38 -40 -80 -80 -65 -15 6 -16
34 -1 58 19 31 72 36 81 7z m388 7 c18 -18 6 -63 -25 -91 -26 -23 -41 -8 -41
40 0 58 33 84 66 51z m384 -9 c8 -38 -19 -65 -92 -92 -39 -15 -97 -40 -128
-55 -67 -34 -68 -34 -68 -12 0 24 85 102 160 146 72 42 122 47 128 13z m1324
8 c3 -3 -5 -24 -18 -48 -13 -23 -25 -65 -28 -93 -5 -61 -19 -89 -47 -98 -25
-8 -68 12 -70 32 -1 7 -2 19 -3 26 -7 45 47 126 108 162 44 26 49 28 58 19z
m225 -2 c6 -4 16 -19 21 -33 14 -35 -6 -59 -60 -71 -53 -11 -88 -43 -88 -78 0
-31 34 -80 56 -80 21 0 17 -38 -6 -45 -33 -10 -89 24 -112 68 -43 85 -19 181
58 224 39 22 107 30 131 15z m-5102 -30 c0 -31 -19 -28 -23 4 -3 18 0 25 10
22 7 -3 13 -14 13 -26z m5333 -10 c2 -13 -3 -25 -13 -28 -23 -9 -38 10 -30 36
9 27 39 22 43 -8z m-4515 4 c25 -19 38 -72 26 -100 -24 -52 -81 -57 -95 -8
-13 47 -9 73 16 100 24 25 29 26 53 8z m352 0 c16 -12 17 -17 6 -45 -8 -17
-19 -31 -25 -31 -16 0 -49 58 -42 76 7 18 36 18 61 0z m1429 -2 c25 -24 17
-47 -20 -56 -27 -7 -47 5 -50 28 -6 40 40 58 70 28z m-1064 -19 c13 -8 5 -56
-12 -67 -7 -4 -20 -8 -29 -8 -9 0 -33 -7 -53 -15 -31 -13 -39 -14 -51 -2 -7 8
-12 23 -10 33 2 10 4 22 4 26 1 7 46 30 81 41 17 6 55 1 70 -8z m164 4 c27
-13 49 -75 43 -125 -8 -61 -65 -124 -111 -124 -22 0 -31 27 -16 44 8 11 9 20
0 35 -11 22 -35 28 -44 12 -7 -10 -25 -9 -43 2 -19 12 -16 25 11 42 22 15 28
15 53 2 20 -11 34 -12 46 -6 21 12 23 48 3 55 -25 9 -26 33 -4 54 25 23 29 24
62 9z m-1755 -31 c9 -25 8 -42 -11 -105 -10 -36 -14 -40 -30 -32 -15 8 -18 18
-14 51 7 54 25 108 37 108 5 0 13 -10 18 -22z m360 -24 c15 -35 14 -86 -4
-110 -8 -10 -15 -14 -15 -9 -5 45 -20 73 -20 37 0 -16 -18 -43 -21 -30 0 2 -2
26 -5 53 l-5 50 20 -25 c22 -27 29 -12 9 19 -14 23 -4 53 15 45 8 -3 19 -16
26 -30z m5821 11 c0 -15 -6 -25 -14 -25 -16 0 -25 19 -18 38 8 22 32 13 32
-13z m-5727 -15 c-2 -17 3 -53 12 -80 18 -54 13 -79 -11 -59 -10 8 -14 24 -11
45 3 21 0 38 -9 45 -11 9 -14 7 -14 -10 0 -18 -3 -20 -18 -12 -27 14 -18 88
11 94 44 9 45 8 40 -23z m51 -6 c2 -16 8 -40 13 -54 18 -44 -1 -65 -28 -32
-19 22 -24 75 -9 102 14 26 19 23 24 -16z m2434 -3 c29 -35 44 -84 37 -120
-11 -56 -49 -71 -58 -22 -4 19 -14 31 -30 35 -34 8 -38 26 -19 85 14 43 20 50
37 44 11 -3 26 -13 33 -22z m-995 -12 c20 -43 12 -69 -24 -69 -42 0 -66 59
-37 88 21 21 45 13 61 -19z m638 5 c27 -26 29 -54 4 -54 -16 0 -66 61 -59 72
9 14 27 8 55 -18z m-2717 -17 c5 -26 -7 -37 -19 -17 -6 10 4 55 10 48 2 -2 6
-16 9 -31z m2623 -3 c80 -61 88 -162 17 -231 -48 -48 -108 -39 -139 20 -14 28
-10 83 8 105 33 41 80 35 57 -7 -14 -28 -4 -61 20 -61 41 0 60 83 29 127 -8
11 -30 29 -49 40 -18 10 -36 25 -38 33 -7 21 55 4 95 -26z m1118 10 c29 -19
34 -64 10 -84 -29 -24 -83 46 -63 83 11 21 22 21 53 1z m1101 -1 c-1 -10 -8
-31 -14 -46 -7 -16 -12 -36 -12 -45 0 -36 -16 -45 -63 -38 -63 10 -65 31 -6
78 26 21 49 45 53 53 8 22 47 20 42 -2z m-4431 -40 c10 -45 8 -76 -7 -123 -10
-32 -12 -33 -19 -12 -13 35 -25 26 -25 -19 l1 -41 -42 -2 c-41 -2 -43 -1 -43
27 0 39 17 67 41 67 24 0 39 36 33 80 -7 43 1 60 30 60 20 0 25 -7 31 -37z
m1131 29 c17 -11 36 -51 29 -62 -8 -13 -97 -3 -107 12 -5 8 1 21 18 36 26 23
41 27 60 14z m2297 -25 c-3 -5 -10 -4 -15 1 -6 6 -7 16 -3 22 6 9 9 9 16 -1 4
-7 5 -17 2 -22z m-1663 1 c39 -43 38 -88 -2 -88 -44 0 -89 76 -61 103 13 14
43 6 63 -15z m3123 13 c4 -1 7 -8 7 -16 0 -17 -42 -30 -66 -21 -15 6 -15 8 0
25 10 11 25 18 34 16 9 -2 20 -4 25 -4z m923 -34 c64 -33 122 -106 116 -144
-2 -13 -9 -23 -16 -23 -18 0 -56 38 -56 56 0 9 -10 30 -22 46 -19 27 -25 30
-62 25 -31 -4 -47 -1 -63 13 -13 10 -23 23 -23 28 0 24 80 23 126 -1z m-5896
-52 c-12 -15 -14 -15 -22 -1 -5 10 -4 24 3 38 l12 23 10 -22 c7 -16 6 -27 -3
-38z m3280 1 c0 -63 -7 -73 -50 -81 -19 -3 -41 -14 -49 -25 -17 -26 -49 -11
-46 22 5 54 44 107 94 126 45 16 51 12 51 -42z m630 9 c0 -29 -20 -65 -36 -65
-21 0 -56 39 -52 59 5 23 48 42 70 30 10 -5 18 -16 18 -24z m-2565 11 c19 -8
35 -22 35 -30 0 -18 -13 -20 -38 -6 -9 5 -30 14 -45 20 -16 5 -25 14 -22 20 9
14 30 13 70 -4z m-1650 -37 c6 -31 -9 -54 -29 -46 -19 7 -22 57 -4 75 15 15
27 4 33 -29z m508 29 c2 -7 0 -25 -6 -41 -10 -31 -54 -48 -67 -27 -11 18 9 60
26 53 8 -3 17 2 20 11 7 19 21 21 27 4z m1949 6 c3 -3 -1 -18 -9 -34 -17 -36
-30 -113 -27 -167 3 -57 41 -253 59 -304 11 -29 12 -46 5 -53 -15 -15 -29 4
-34 47 -7 49 -24 79 -44 75 -12 -2 -16 -11 -14 -29 4 -33 -20 -44 -46 -21 -54
48 -126 382 -81 382 19 0 37 -65 38 -140 2 -101 4 -110 30 -131 26 -21 48 -16
57 13 4 15 -1 26 -21 42 -25 20 -27 28 -26 85 1 103 36 211 75 229 25 13 31
14 38 6z m1425 -7 c2 -2 6 -14 8 -26 3 -16 -3 -25 -19 -32 -45 -21 -87 26 -54
59 10 10 54 10 65 -1z m448 3 c16 -25 13 -63 -11 -159 -37 -147 -70 -214 -86
-172 -10 29 3 228 19 286 12 44 61 72 78 45z m-2240 -40 c8 -7 15 -21 15 -32
0 -17 -4 -19 -27 -13 -15 3 -31 11 -34 17 -3 5 -9 9 -13 9 -21 -3 -43 1 -56 9
-13 9 -13 12 3 24 20 15 87 7 112 -14z m-1536 -2 c5 -14 5 -28 -1 -35 -17 -21
-35 -15 -33 10 1 12 3 28 4 35 2 20 21 14 30 -10z m3519 8 c24 -13 80 -92 98
-138 11 -30 -15 -21 -51 18 -26 27 -45 37 -77 41 -39 5 -68 24 -68 45 0 14 39
48 55 48 9 0 28 -6 43 -14z m381 -2 c9 -9 -52 -62 -65 -57 -14 5 -13 41 1 64
6 9 53 5 64 -7z m-4318 -6 c3 -26 -3 -42 -19 -54 -22 -16 -25 -13 -17 30 7 34
34 52 36 24z m95 -42 c-3 -22 -5 -44 -5 -48 -1 -5 -5 -8 -11 -8 -8 0 -22 49
-25 85 -1 15 16 24 32 18 11 -4 13 -17 9 -47z m4660 27 c23 -37 -11 -112 -38
-85 -6 6 -13 21 -15 32 -1 10 -3 23 -4 27 -5 29 3 43 24 43 12 0 27 -8 33 -17z
m667 -33 c40 -67 5 -139 -76 -156 -80 -17 -157 5 -157 45 0 37 25 44 69 19 44
-25 62 -21 87 18 10 15 10 26 -1 57 -11 32 -11 40 1 52 19 19 55 3 77 -35z
m433 36 c3 -8 -4 -24 -15 -35 -34 -34 -22 -81 20 -81 13 0 16 -6 13 -22 -16
-85 -32 -101 -48 -50 -5 15 -15 35 -23 44 -8 9 -13 28 -11 41 2 16 -6 35 -20
50 l-24 25 21 21 c24 24 79 28 87 7z m-3001 -12 c14 -9 25 -25 25 -36 0 -16
-6 -19 -36 -16 -40 3 -61 25 -51 52 8 20 31 20 62 0z m1728 -15 c15 -6 28 -15
28 -20 4 -29 3 -36 -11 -52 -23 -29 -58 -41 -149 -51 -61 -7 -107 -24 -156
-57 -61 -41 -71 -38 -65 16 6 60 83 144 152 167 48 16 157 14 201 -3z m-4300
-19 c-3 -11 -9 -23 -14 -26 -10 -6 -12 39 -3 49 12 12 22 -3 17 -23z m1794
-60 c41 -140 24 -157 -44 -44 -56 91 -57 128 -3 122 22 -3 28 -12 47 -78z
m1698 41 c-10 -17 -64 -43 -75 -36 -21 13 -9 33 28 47 37 15 60 9 47 -11z
m1167 -19 c17 -29 17 -87 0 -104 -7 -7 -14 2 -22 31 -12 47 -39 67 -64 48 -16
-12 -16 -14 4 -37 20 -23 20 -25 4 -37 -56 -41 -118 34 -83 98 28 53 130 53
161 1z m-5066 27 c8 -14 -21 -43 -35 -35 -8 5 -8 13 -1 27 12 21 25 25 36 8z
m2020 -12 c36 -18 114 -103 114 -123 0 -7 4 -14 8 -16 21 -8 179 -320 217
-428 28 -80 -1 -65 -50 27 -26 48 -74 123 -107 166 -70 91 -236 259 -291 294
-34 21 -38 28 -32 51 3 14 14 32 23 39 21 16 78 12 118 -10z m3636 -14 c9 -10
26 -37 38 -61 18 -34 21 -50 14 -74 -11 -36 -54 -54 -87 -37 -16 9 -18 18 -13
57 7 48 13 83 16 92 1 3 2 13 1 23 -1 9 2 17 7 17 5 0 16 -8 24 -17z m-2974
-25 c7 -7 12 -22 12 -34 0 -19 -5 -22 -32 -20 -38 3 -46 20 -22 47 20 22 26
23 42 7z m877 -16 c4 -11 -2 -23 -15 -34 -16 -13 -27 -15 -50 -7 -42 15 -45
37 -7 52 37 16 63 12 72 -11z m475 12 c0 -8 -6 -15 -12 -15 -96 -9 -128 -27
-142 -82 -7 -28 -6 -41 7 -60 17 -27 35 -29 60 -8 12 9 14 19 7 36 -11 28 1
39 29 30 33 -10 49 -88 26 -125 -14 -23 -68 -41 -106 -37 -66 7 -113 82 -95
150 9 36 69 100 107 112 48 17 119 16 119 -1z m769 -3 c16 -10 6 -51 -13 -51
-24 0 -35 21 -23 41 13 21 16 22 36 10z m-3680 -10 c17 -11 -2 -51 -25 -51
-20 0 -29 27 -14 45 14 17 20 18 39 6z m-152 -16 c5 -17 -23 -49 -35 -41 -7 4
-12 18 -12 32 0 20 4 25 22 22 12 -2 23 -8 25 -13z m339 3 c10 -15 -7 -47 -27
-53 -26 -9 -49 11 -49 42 0 21 4 23 36 21 19 -1 38 -6 40 -10z m1184 -18 l25
-19 -22 -38 c-24 -41 -45 -50 -48 -18 -5 51 -7 81 -6 88 2 13 25 7 51 -13z
m-2397 -41 c1 -50 -12 -109 -25 -109 -6 0 -8 9 -5 20 3 11 1 23 -4 26 -9 5 -5
57 7 98 9 27 26 5 27 -35z m745 39 c8 -8 8 -17 0 -31 -10 -20 -11 -20 -24 -3
-12 17 -9 46 5 46 4 0 12 -5 19 -12z m-632 -50 c-7 -46 -14 -61 -27 -53 -8 6
-5 47 7 88 10 32 26 5 20 -35z m5014 33 c0 -10 -9 -39 -20 -64 -11 -24 -21
-68 -23 -96 -5 -64 -13 -73 -38 -41 -44 57 -47 154 -8 197 29 30 89 33 89 4z
m-4490 -18 c0 -14 -6 -23 -15 -23 -9 0 -15 9 -15 23 0 14 6 24 15 24 9 0 15
-10 15 -24z m318 9 c29 -26 35 -79 11 -103 -25 -25 -53 -24 -77 1 -25 27 -20
79 9 103 26 21 31 21 57 -1z m153 8 c28 -15 48 -61 38 -86 -15 -41 -66 -55
-92 -26 -32 35 -25 106 12 115 9 3 17 5 19 6 2 0 12 -4 23 -9z m4676 2 c16
-10 43 -75 43 -104 0 -21 -2 -20 -33 10 -18 18 -38 32 -44 32 -18 0 -26 39
-13 55 14 17 29 19 47 7z m-5243 -35 c-3 -9 -10 -17 -15 -17 -11 0 -12 34 -2
43 11 12 24 -8 17 -26z m877 1 c8 -15 7 -22 -8 -33 -20 -15 -47 -5 -57 21 -16
41 44 52 65 12z m-1141 2 c8 -13 -11 -110 -22 -110 -5 0 -25 15 -45 34 -26 23
-37 43 -39 66 l-2 32 50 -5 c28 -3 54 -11 58 -17z m186 -16 c-5 -13 -10 -14
-18 -6 -6 6 -8 18 -4 28 5 13 10 14 18 6 6 -6 8 -18 4 -28z m362 24 c13 -13
16 -57 4 -74 -24 -35 -72 -20 -72 23 0 52 38 81 68 51z m495 -18 c28 -26 31
-92 6 -118 -43 -47 -129 -7 -129 59 0 80 66 112 123 59z m-923 -6 c0 -8 -4
-14 -10 -14 -5 0 -10 9 -10 21 0 11 5 17 10 14 6 -3 10 -13 10 -21z m310 0
c12 -32 -4 -74 -28 -74 -25 0 -42 38 -30 70 11 34 46 37 58 4z m3945 13 c22
-17 15 -31 -33 -60 -30 -17 -31 -17 -61 9 -23 19 -39 25 -58 21 -30 -5 -53 1
-53 14 0 25 173 39 205 16z m1547 -9 c17 -28 23 -94 9 -102 -5 -3 -16 1 -24 9
-20 19 -23 19 -44 -4 -15 -16 -27 -19 -61 -14 -49 7 -51 16 -17 58 23 27 26
28 35 13 13 -21 43 -24 57 -5 6 6 8 24 6 40 -5 34 19 37 39 5z m-5862 -3 c0
-8 -4 -15 -10 -15 -5 0 -10 7 -10 15 0 8 5 15 10 15 6 0 10 -7 10 -15z m2275
-24 c99 -46 166 -127 167 -203 0 -45 -28 -82 -72 -93 -21 -5 -28 0 -44 29 -18
34 -36 48 -65 50 -9 1 -20 20 -26 46 -19 72 -62 140 -90 140 -7 0 -20 9 -29
19 -16 18 -16 20 5 35 29 20 76 13 154 -23z m2595 15 c0 -7 -8 -21 -18 -32
-10 -11 -26 -31 -36 -46 -17 -26 -16 -27 13 -61 28 -31 30 -38 20 -65 -13 -39
-36 -48 -45 -19 -37 109 -33 185 11 224 25 22 55 22 55 -1z m-4611 -8 c10 -26
-3 -58 -24 -58 -7 0 -15 8 -17 18 -6 29 4 62 18 62 8 0 18 -10 23 -22z m4859
3 c-3 -29 6 -49 27 -59 14 -6 25 -19 25 -27 0 -26 -29 -75 -45 -75 -8 0 -14 3
-13 8 6 21 -15 80 -37 106 -30 35 -20 66 19 59 14 -3 25 -8 24 -12z m-4938
-31 c0 -22 -25 -44 -40 -35 -13 8 -13 17 0 50 9 23 13 25 25 15 8 -7 15 -20
15 -30z m-652 5 c-2 -14 -7 -26 -13 -26 -5 0 -11 12 -13 26 -2 18 1 25 13 25
12 0 15 -7 13 -25z m500 -12 c-2 -20 -9 -38 -16 -41 -13 -4 -13 3 -2 76 0 1 5
2 11 2 6 0 9 -16 7 -37z m68 24 c3 -8 0 -26 -6 -41 -8 -23 -13 -26 -25 -16 -7
6 -12 18 -9 26 2 8 6 21 9 29 5 19 24 20 31 2z m3577 -19 c31 -42 36 -95 16
-193 -19 -92 -27 -105 -79 -115 -34 -7 -38 -42 -8 -62 44 -29 87 8 123 107 40
108 94 162 87 86 -6 -55 -132 -261 -178 -292 -39 -25 -69 -10 -52 27 14 30 1
44 -37 37 -17 -4 -29 -19 -44 -54 -19 -48 -33 -59 -46 -39 -4 6 20 59 53 118
33 59 72 134 87 167 15 33 30 67 34 75 4 8 7 50 6 93 -2 83 4 90 38 45z
m-3703 3 c0 -11 -4 -23 -10 -26 -6 -4 -9 5 -8 19 3 30 18 35 18 7z m1213 -11
c10 -10 21 -36 24 -58 4 -32 1 -44 -16 -61 -49 -49 -131 -6 -131 69 0 71 70
99 123 50z m1299 21 c21 -2 28 -42 14 -76 -8 -19 -19 -35 -24 -35 -16 0 -42
36 -48 69 -7 35 5 51 35 46 9 -2 19 -4 23 -4z m2531 -36 c50 -32 77 -116 45
-136 -11 -7 -74 31 -92 56 -6 8 -25 17 -42 18 -17 2 -36 7 -43 11 -17 11 -13
54 6 65 26 14 94 7 126 -14z m388 1 c15 -13 34 -26 41 -29 10 -4 10 -7 1 -18
-11 -11 -17 -9 -34 9 -11 12 -25 20 -30 16 -14 -9 -39 15 -32 32 7 20 21 18
54 -10z m-4118 0 c23 -18 21 -35 -5 -46 -18 -6 -27 -4 -40 11 -32 37 4 66 45
35z m2892 2 c1 -2 6 -13 9 -25 14 -44 -82 -90 -98 -47 -7 18 10 54 33 70 13
10 48 11 56 2z m455 -18 c0 -12 -39 -19 -46 -9 -3 6 0 16 6 25 10 11 16 12 26
3 8 -6 14 -15 14 -19z m-3930 -5 c0 -19 -14 -32 -31 -28 -18 5 -26 33 -13 46
6 6 44 -9 44 -18z m3348 13 c19 -19 14 -45 -14 -67 -31 -24 -76 -27 -94 -6
-13 16 -6 33 24 55 42 31 66 36 84 18z m359 -17 c17 -22 16 -51 -1 -51 -23 0
-45 -28 -39 -49 6 -23 31 -31 74 -24 22 3 34 -1 49 -19 40 -47 -1 -76 -45 -32
-21 21 -27 23 -50 12 -22 -10 -24 -16 -19 -44 6 -30 4 -32 -20 -30 -55 6 -101
79 -94 148 9 91 100 146 145 89z m-4625 -33 c-2 -47 -18 -71 -31 -49 -8 12 3
72 16 94 10 16 16 -4 15 -45z m614 25 c-10 -10 -19 5 -10 18 6 11 8 11 12 0 2
-7 1 -15 -2 -18z m126 12 c0 -5 -5 -11 -10 -13 -5 -1 -9 4 -9 13 0 9 4 14 9
13 5 -2 10 -8 10 -13z m2819 -6 c5 -8 9 -22 9 -32 0 -13 -7 -17 -31 -15 -36 3
-45 18 -30 46 12 23 38 23 52 1z m-3141 -5 c0 -8 -5 -12 -10 -9 -6 4 -8 11 -5
16 9 14 15 11 15 -7z m95 6 c3 -5 -1 -10 -9 -10 -9 0 -16 5 -16 10 0 6 4 10 9
10 6 0 13 -4 16 -10z m559 -12 c14 -23 -5 -42 -33 -33 -20 6 -28 34 -14 49 11
11 35 3 47 -16z m4431 1 c16 -50 -53 -167 -132 -228 -43 -31 -123 -55 -123
-35 0 5 29 40 65 77 35 37 74 89 85 115 12 26 28 57 36 70 19 29 60 30 69 1z
m-5165 -4 c0 -8 -4 -15 -10 -15 -5 0 -10 7 -10 15 0 8 5 15 10 15 6 0 10 -7
10 -15z m2043 2 c22 -24 40 -61 44 -92 10 -70 11 -69 -29 -70 -28 -1 -38 2
-38 13 0 22 -41 53 -62 46 -13 -4 -21 1 -27 18 -11 28 -9 31 26 32 23 1 30 7
38 34 10 33 28 41 48 19z m-2561 -62 c-2 -19 -6 -35 -8 -35 -2 0 -4 16 -4 35
0 19 4 35 8 35 4 0 6 -16 4 -35z m1432 19 c24 -24 20 -44 -9 -44 -30 0 -43 24
-25 45 15 18 15 18 34 -1z m2030 0 c19 -19 9 -43 -28 -68 -45 -29 -59 -22 -53
25 8 58 46 78 81 43z m1544 -4 c76 -41 100 -74 76 -108 -19 -27 -38 -24 -93
16 -24 18 -48 32 -52 32 -18 0 -30 39 -19 60 14 25 41 25 88 0z m801 5 c38
-19 54 -63 49 -130 -5 -62 -15 -76 -52 -80 -33 -4 -79 -32 -96 -58 -7 -12 -15
-37 -17 -57 -6 -46 -18 -57 -40 -39 -31 24 -56 35 -125 54 -38 10 -68 21 -68
26 0 4 28 21 63 37 75 36 137 99 162 168 37 96 61 112 124 79z m-4029 -23 c35
-39 42 -69 25 -108 -42 -101 -179 -29 -151 80 15 59 86 75 126 28z m-1546 -27
c18 -45 16 -102 -4 -90 -6 4 -8 10 -6 14 3 4 -3 21 -12 37 -16 27 -19 84 -4
84 4 0 15 -20 26 -45z m5942 31 c13 -9 21 -23 19 -33 -2 -10 -4 -21 -4 -25 -2
-15 -36 -8 -61 12 -14 11 -30 20 -37 20 -17 0 -28 21 -15 29 22 13 75 11 98
-3z m-838 -33 c4 -28 -24 -83 -43 -83 -18 0 -20 45 -5 85 12 32 43 30 48 -2z
m2533 -19 c43 -41 63 -113 63 -224 -1 -88 -6 -156 -17 -205 -3 -11 -8 -39 -12
-62 -7 -42 -25 -70 -25 -39 0 14 -11 18 -36 15 -11 -1 -23 25 -16 36 3 5 8 17
9 25 22 126 22 269 0 322 -15 36 -35 43 -67 23 -15 -9 -50 32 -50 59 0 14 12
39 27 56 23 28 31 31 61 26 19 -3 48 -17 63 -32z m-4087 -4 c42 -26 42 -44 0
-48 -73 -6 -98 -15 -135 -49 -22 -20 -47 -49 -55 -64 -12 -25 -17 -27 -40 -19
-38 15 -49 13 -82 -15 -39 -33 -64 -32 -85 4 -51 87 26 171 198 215 11 3 52 4
91 2 53 -2 81 -9 108 -26z m181 5 c1 -21 -30 -81 -46 -91 -5 -3 -19 15 -30 41
-25 57 -15 75 39 72 30 -2 37 -6 37 -22z m395 -21 c0 -26 0 -25 -84 -89 -90
-69 -101 -55 -35 44 60 90 119 112 119 45z m185 24 c36 -28 20 -35 -71 -28
-71 5 -94 23 -52 39 41 17 94 12 123 -11z m-2651 -12 c25 -22 35 -55 19 -57
-64 -10 -82 0 -78 41 1 8 3 21 3 28 3 19 29 14 56 -12z m-276 -5 c18 -11 11
-45 -10 -49 -18 -3 -43 32 -33 48 8 12 25 13 43 1z m6024 -58 c-2 -7 -8 -13
-13 -13 -11 0 -12 64 -1 74 8 9 20 -43 14 -61z m-1552 31 c8 -14 27 -32 42
-40 32 -16 35 -26 13 -44 -15 -12 -46 -7 -44 7 3 20 -15 53 -32 58 -21 7 -26
45 -6 45 8 0 20 -12 27 -26z m-3557 -63 c11 -33 12 -53 4 -84 -9 -37 -11 -38
-24 -21 -7 10 -11 25 -8 32 3 8 -3 26 -14 40 -17 25 -19 55 -6 91 8 22 30 -4
48 -58z m2893 54 c19 -15 18 -16 -9 -40 -36 -32 -55 -32 -67 1 -18 48 32 73
76 39z m-3051 -8 c26 -15 26 -36 -1 -54 -19 -12 -24 -11 -53 16 -18 17 -30 35
-26 41 8 14 55 12 80 -3z m4144 -35 c31 -14 79 -39 106 -55 90 -53 235 -127
248 -127 41 0 65 -61 37 -95 -15 -18 -23 -14 -93 50 -136 125 -294 222 -392
242 -11 2 -24 8 -30 14 -17 19 61 0 124 -29z m-462 3 c28 -28 33 -72 15 -133
-20 -71 -21 -184 -3 -240 8 -23 11 -45 7 -50 -8 -7 -180 79 -222 111 -30 23
-31 44 -3 52 12 4 29 26 41 51 18 41 18 48 5 100 -15 57 -15 57 12 85 47 49
112 59 148 24z m-4940 0 c88 -4 112 -7 188 -26 73 -18 226 -85 233 -101 2 -5
9 -8 15 -8 9 0 83 -45 97 -60 3 -3 21 -18 40 -33 103 -83 310 -314 310 -345 0
-6 3 -12 8 -14 32 -14 252 -504 252 -562 0 -21 -4 -21 -74 13 -81 39 -123 45
-301 43 -295 -4 -411 -4 -470 3 -85 10 -254 45 -292 61 -18 7 -33 11 -33 9 0
-11 -144 51 -224 97 -193 109 -334 235 -392 351 -61 120 -164 456 -164 533 0
32 9 42 24 27 3 -4 14 -9 24 -11 34 -9 269 -9 342 -1 74 8 129 14 244 24 33 3
62 7 64 10 3 2 8 2 13 -1 4 -2 48 -6 96 -9z m1828 5 c3 -6 9 -36 11 -68 3 -31
14 -77 25 -101 25 -57 24 -68 -6 -75 -40 -10 -72 -88 -53 -128 11 -23 -1 -22
-32 2 -14 11 -31 20 -37 20 -19 0 -16 27 3 34 13 5 15 15 10 51 -7 58 -27 94
-71 136 -49 46 -46 61 10 59 15 -1 73 36 89 56 21 25 41 31 51 14z m1639 -13
c28 -18 47 -53 39 -73 -2 -5 -25 -16 -51 -22 -193 -51 -442 -185 -568 -307
-55 -53 -74 -65 -74 -47 0 12 58 88 114 149 150 164 278 271 360 302 61 23
143 22 180 -2z m587 -5 c19 -17 29 -34 25 -40 -15 -24 -112 -9 -126 19 -8 15
-5 21 17 33 39 21 48 20 84 -12z m-4890 -34 c1 -50 4 -72 18 -153 17 -98 21
-117 42 -188 11 -38 18 -74 16 -80 -6 -15 -47 77 -76 168 -12 39 -25 77 -30
85 -4 8 -6 53 -5 100 2 112 2 110 19 110 11 0 15 -12 16 -42z m3484 34 c6 -4
11 -20 12 -37 3 -32 25 -55 54 -55 22 0 31 -13 23 -34 -7 -18 -39 -22 -49 -6
-11 18 -45 11 -72 -16 -23 -23 -27 -24 -42 -10 -10 9 -30 16 -46 16 -25 0 -27
2 -22 30 7 34 40 75 82 101 33 20 45 23 60 11z m1245 -7 c23 -14 7 -21 -50
-23 -60 -1 -83 10 -54 26 17 9 87 8 104 -3z m-3079 -5 c21 -12 46 -57 44 -80
-1 -8 -3 -23 -3 -32 -3 -25 -52 -48 -79 -37 -35 13 -59 59 -54 107 2 18 39 52
57 52 8 0 24 -5 35 -10z m724 0 c3 -5 1 -10 -4 -10 -6 0 -11 5 -11 10 0 6 2
10 4 10 3 0 8 -4 11 -10z m5065 -34 c13 -23 13 -28 0 -36 -21 -13 -40 7 -40
42 0 36 18 33 40 -6z m-1343 17 c6 -2 10 -12 9 -21 -2 -10 -21 -20 -59 -29
-31 -7 -75 -24 -98 -38 -38 -25 -100 -108 -105 -142 -6 -37 -34 -25 -34 15 2
73 62 171 122 200 37 17 135 26 165 15z m-4564 -43 c8 -32 -22 -38 -45 -10
-14 17 -16 26 -7 36 14 18 44 2 52 -26z m1481 5 c16 -45 37 -70 75 -91 41 -24
42 -36 2 -49 -106 -37 -152 -138 -85 -192 l29 -23 -30 -1 c-115 -3 -207 -55
-253 -144 -18 -33 -28 -34 -23 -2 2 15 -41 132 -55 148 -22 24 -17 31 11 13
36 -24 103 -20 142 7 46 32 54 117 13 154 -18 17 -18 18 25 62 25 25 59 69 76
99 35 62 56 67 73 19z m-824 -6 c7 -12 9 -44 5 -82 -3 -34 -7 -90 -9 -125 -5
-110 -28 -99 -56 25 -19 84 -19 155 -1 180 20 28 47 29 61 2z m-406 -14 c24
-26 30 -54 12 -56 -6 0 -19 -2 -28 -4 -33 -6 -53 36 -39 83 4 11 36 -3 55 -23z
m301 15 c3 -5 1 -10 -4 -10 -6 0 -11 5 -11 10 0 6 2 10 4 10 3 0 8 -4 11 -10z
m318 -5 c64 -31 137 -111 137 -151 0 -22 -30 -32 -69 -22 -20 5 -46 10 -58 12
-31 4 -94 -26 -132 -63 -18 -18 -36 -30 -39 -27 -8 8 -11 126 -3 126 7 0 38
49 40 63 1 4 1 14 1 22 0 24 38 55 66 55 14 0 40 -7 57 -15z m4971 -14 c18
-33 50 -45 70 -25 31 30 51 4 40 -51 -12 -66 -151 -192 -283 -257 -59 -29 -75
-32 -151 -32 -100 1 -204 32 -315 92 -72 40 -81 54 -62 99 15 34 32 35 95 6
121 -55 286 -75 367 -44 65 25 137 93 181 172 22 38 40 69 41 69 1 0 9 -13 17
-29z m-7444 9 c0 -5 -4 -10 -10 -10 -5 0 -10 5 -10 10 0 6 5 10 10 10 6 0 10
-4 10 -10z m5640 -12 c35 -38 23 -100 -25 -125 -26 -13 -84 10 -87 35 0 9 -2
24 -3 32 -2 24 23 68 42 73 37 10 53 6 73 -15z m482 -49 c-2 -8 -6 -38 -9 -67
-5 -40 -9 -52 -20 -48 -20 8 -49 -9 -90 -55 -55 -60 -80 -50 -68 27 5 34 16
54 47 84 60 60 149 97 140 59z m113 11 c3 -6 -3 -24 -15 -40 -26 -36 -24 -93
2 -98 12 -2 22 8 32 32 8 20 19 36 23 36 32 0 44 -67 17 -94 -16 -17 -21 -18
-54 -18 -41 0 -50 3 -73 25 -28 27 -33 76 -12 117 22 42 65 64 80 40z m-6312
-20 c8 -12 13 -35 11 -53 -1 -18 2 -47 9 -65 9 -27 8 -35 -5 -48 -15 -15 -17
-14 -32 8 -15 23 -29 140 -19 165 7 19 20 16 36 -7z m106 -70 c7 -30 14 -65
18 -77 11 -44 -12 -22 -34 32 -23 56 -29 96 -16 108 11 12 20 -5 32 -63z
m6405 38 c12 -6 36 -21 54 -35 37 -27 39 -49 13 -108 l-18 -40 -19 40 c-22 45
-36 64 -82 112 -18 19 -30 38 -27 43 6 10 49 4 79 -12z m-2844 -7 c0 -3 3 -15
6 -26 3 -14 -6 -35 -30 -65 -20 -25 -36 -51 -36 -57 0 -18 -17 -16 -24 3 -3 9
-6 32 -6 53 0 43 51 114 75 104 8 -3 15 -8 15 -12z m-3786 -38 c-5 -43 -23
-82 -25 -57 0 5 -2 25 -5 44 -4 44 1 60 21 60 13 0 14 -8 9 -47z m48 -5 c-17
-17 -24 -4 -16 28 7 28 7 28 17 6 7 -16 7 -26 -1 -34z m2045 27 c62 -63 8
-169 -67 -130 -71 37 -53 163 22 150 17 -3 37 -12 45 -20z m-2161 -49 c-4 -62
-14 -87 -26 -65 -9 16 10 119 22 119 4 0 6 -24 4 -54z m2008 41 c13 -10 16
-20 12 -35 -4 -12 -11 -22 -15 -22 -16 0 -43 40 -38 55 8 18 18 19 41 2z
m5850 -40 c-10 -76 -13 -90 -24 -101 -7 -7 -10 -6 -10 4 0 7 -7 21 -15 31 -16
17 -12 69 6 69 5 0 9 5 9 10 0 15 23 39 32 34 4 -3 5 -24 2 -47z m-4201 4 c50
-24 66 -47 74 -104 3 -23 12 -55 20 -70 11 -23 12 -35 2 -65 -16 -52 -28 -65
-45 -51 -8 6 -14 17 -14 24 0 21 -72 87 -117 107 -23 10 -63 21 -87 23 -73 8
-113 30 -112 61 2 24 53 62 100 76 75 22 132 22 179 -1z m381 -1 c16 -6 26
-17 26 -30 0 -11 -3 -19 -7 -19 -5 1 -10 0 -13 -1 -39 -15 -90 1 -90 29 0 30
37 39 84 21z m2619 -32 c39 -61 36 -68 -23 -64 -28 2 -53 6 -57 9 -6 7 36 97
46 97 3 0 19 -19 34 -42z m-3517 9 c26 -27 26 -56 0 -82 -32 -32 -66 -32 -100
0 -31 29 -29 58 7 88 23 20 72 17 93 -6z m-890 -11 c16 -17 18 -42 4 -51 -16
-10 -49 13 -45 32 2 10 4 21 4 26 1 12 21 8 37 -7z m569 -4 c17 -9 13 -12 -25
-21 -25 -7 -54 -16 -65 -21 -65 -28 -85 -11 -37 31 24 22 39 27 70 25 21 -2
47 -8 57 -14z m2309 -8 c23 -9 20 -37 -5 -52 -17 -11 -25 -11 -45 3 -28 18
-30 30 -6 44 20 12 34 13 56 5z m1220 -36 c-2 -18 -12 -40 -21 -49 -23 -23
-73 -36 -73 -19 0 16 82 110 91 104 4 -2 6 -19 3 -36z m530 19 c13 -19 13 -27
1 -62 -8 -22 -14 -55 -15 -72 0 -46 -25 -43 -50 7 -24 47 -26 97 -4 128 20 28
50 28 68 -1z m-6767 -34 c-3 -27 -13 -64 -22 -83 l-16 -35 6 52 c6 53 23 113
32 113 3 0 3 -21 0 -47z m214 -59 c35 -36 32 -72 -4 -52 -52 27 -77 82 -68
151 1 6 11 -6 23 -28 11 -22 33 -54 49 -71z m4549 85 c0 -31 -28 -49 -57 -36
-24 11 -31 43 -12 49 7 2 25 5 40 6 24 2 29 -2 29 -19z m1572 -11 c14 -10 33
-18 41 -18 12 0 14 -7 11 -27 -8 -49 -15 -63 -26 -57 -6 4 -19 7 -29 8 -11 1
-20 6 -20 11 -1 13 -19 35 -30 35 -4 0 -13 -18 -19 -40 -6 -22 -15 -40 -20
-40 -4 0 -15 -3 -24 -6 -34 -13 -26 24 14 63 25 25 40 50 40 65 0 43 7 44 62
6z m-2541 6 c24 -29 15 -88 -25 -167 -37 -74 -70 -116 -82 -104 -4 3 1 47 11
97 10 51 19 101 20 113 1 12 3 27 4 34 2 16 30 43 45 43 8 0 20 -7 27 -16z
m1490 -3 c20 -16 21 -21 10 -34 -21 -26 -50 -31 -72 -11 -22 20 -24 35 -7 52
17 17 42 15 69 -7z m-355 -24 c11 -14 20 -35 18 -48 -1 -13 -3 -30 -3 -36 -1
-19 -47 -45 -86 -48 -28 -3 -41 2 -65 27 -30 29 -32 46 -15 91 20 49 112 58
151 14z m238 -12 c52 -48 25 -129 -48 -141 -30 -4 -44 -1 -71 20 -29 23 -33
31 -30 63 7 74 95 108 149 58z m1674 -9 c2 -15 -3 -35 -11 -44 -8 -10 -18 -37
-22 -62 -7 -38 -9 -42 -16 -23 -4 12 -6 34 -3 50 11 74 16 98 21 106 10 16 28
0 31 -27z m-2151 -34 c28 -67 -8 -123 -83 -127 -128 -8 -137 156 -9 177 37 7
77 -16 92 -50z m2956 14 c-1 -24 -12 -50 -35 -79 -49 -63 -88 -103 -89 -92 -4
56 -9 97 -13 103 -7 12 5 26 59 62 28 19 52 38 54 42 8 22 26 -3 24 -36z
m-7513 -42 c0 -8 -4 -14 -9 -14 -13 0 -21 26 -21 63 l1 32 14 -34 c8 -18 15
-40 15 -47z m2048 43 c29 -27 30 -89 2 -117 -49 -49 -124 4 -115 80 3 18 6 34
7 35 55 38 66 38 106 2z m2308 -2 c1 -44 -44 -68 -85 -45 -32 16 -33 38 -3 55
38 21 87 16 88 -10z m2042 3 c1 -8 -8 -20 -20 -27 -13 -6 -32 -25 -43 -42 -34
-50 -75 -51 -75 0 0 38 19 59 64 75 47 16 70 14 74 -6z m1159 -31 c-2 -30 -12
-67 -20 -83 -15 -27 -97 -121 -97 -110 0 3 -12 -6 -26 -19 -64 -59 -53 7 11
70 58 57 115 144 115 176 0 11 5 19 11 19 8 0 10 -18 6 -53z m-5656 26 c12
-12 3 -53 -11 -53 -15 0 -40 31 -40 51 0 21 31 22 51 2z m3448 3 c9 -11 8 -18
-4 -30 -21 -21 -32 -20 -43 2 -19 36 21 60 47 28z m-105 -21 c29 -27 32 -42
15 -79 -24 -52 -122 -41 -134 14 -16 72 64 116 119 65z m1546 -12 c0 -7 -9
-31 -19 -52 -18 -35 -19 -40 -5 -60 22 -30 44 -11 40 34 -4 39 18 55 34 25 12
-23 13 -91 1 -123 -21 -55 -81 -76 -114 -39 -42 47 -34 196 13 234 24 20 50
10 50 -19z m-6860 3 c0 -8 -4 -18 -10 -21 -5 -3 -10 3 -10 14 0 12 5 21 10 21
6 0 10 -6 10 -14z m3383 -17 c29 -15 56 -49 57 -71 0 -21 -13 -23 -32 -5 -18
16 -43 32 -101 62 -26 14 -45 29 -43 34 7 10 87 -4 119 -20z m3117 -10 c0 -6
-16 -27 -35 -47 -28 -29 -37 -34 -44 -23 -16 24 8 67 44 81 22 8 35 4 35 -11z
m-892 -11 c15 -15 -3 -47 -25 -44 -26 4 -31 56 -6 56 11 0 24 -5 31 -12z
m-1239 -45 c16 -34 14 -57 -6 -82 -29 -34 -75 -43 -112 -20 -17 10 -31 24 -32
31 -5 59 16 93 65 107 39 10 70 -3 85 -36z m1146 23 c30 -30 26 -62 -10 -94
-31 -27 -71 -23 -97 9 -23 28 -23 50 3 83 27 34 71 35 104 2z m-5560 -30 c-7
-32 -7 -140 0 -177 3 -15 -2 -23 -15 -26 -11 -3 -20 -10 -20 -15 0 -5 -4 -7
-8 -4 -13 8 -1 157 18 228 13 46 35 41 25 -6z m4229 18 c14 -37 -40 -73 -78
-52 -25 14 -19 37 15 57 34 21 54 19 63 -5z m752 9 c19 -26 17 -31 -17 -38
-39 -9 -56 11 -32 37 20 23 32 23 49 1z m1369 -1 c-10 -10 28 -42 51 -42 28 0
37 -13 29 -40 -11 -35 -92 -15 -118 30 -14 24 -15 29 -1 48 8 12 21 19 30 15
8 -3 12 -8 9 -11z m673 -19 c-2 -26 -8 -39 -20 -41 -16 -3 -17 2 -9 71 1 4 8
7 17 7 12 0 14 -9 12 -37z m727 -81 c-56 -165 -163 -417 -173 -408 -5 6 36
135 48 151 13 16 78 230 85 280 9 55 41 101 60 85 11 -9 7 -29 -20 -108z
m-1478 76 c5 -39 -19 -53 -48 -28 l-24 20 24 20 c29 25 43 22 48 -12z m390 9
c12 -12 11 -19 -5 -48 -10 -19 -18 -41 -17 -49 1 -8 3 -22 3 -31 2 -15 18 -24
60 -34 36 -9 52 -48 36 -89 -8 -20 -23 -20 -64 0 -18 9 -52 22 -76 28 l-43 11
16 32 c8 18 12 40 9 49 -6 15 -9 15 -29 -4 -18 -17 -26 -19 -35 -10 -28 28 -3
122 39 152 27 19 84 16 106 -7z m749 -4 c-10 -10 -19 5 -10 18 6 11 8 11 12 0
2 -7 1 -15 -2 -18z m-7311 6 c4 -5 17 -9 28 -7 12 1 23 -1 25 -5 6 -17 1 -27
-14 -27 -12 0 -15 -6 -11 -22 3 -13 2 -31 -2 -42 -7 -17 -8 -17 -24 -2 -9 10
-18 29 -18 44 -1 15 -3 37 -4 50 -2 23 9 30 20 11z m4660 -14 c0 -21 -32 -32
-61 -21 -12 5 -13 10 -4 26 15 28 65 24 65 -5z m2392 -15 c6 -13 9 -29 6 -37
-6 -14 -11 -14 -12 0 0 4 -6 14 -13 21 -23 25 -60 -4 -100 -79 -11 -22 -26
-43 -32 -47 -20 -13 -27 -8 -16 11 5 11 10 27 10 35 0 26 58 112 82 123 29 13
60 2 75 -27z m319 -8 c1 -29 -6 -51 -24 -77 -41 -57 -50 -47 -32 35 21 93 54
118 56 42z m-5246 7 c0 -22 -25 -26 -33 -5 -6 16 12 38 25 30 4 -3 8 -14 8
-25z m2994 15 c11 -29 6 -34 -29 -34 -27 0 -35 4 -35 18 0 10 3 22 7 25 12 13
51 7 57 -9z m2093 3 c7 -5 8 -20 3 -43 -11 -46 -15 -50 -36 -29 -11 11 -28 15
-46 13 -36 -6 -55 21 -36 51 9 15 21 19 58 17 26 -2 51 -6 57 -9z m-7255 -15
c3 -9 2 -26 -2 -37 -7 -19 -7 -19 -19 4 -13 23 -9 51 8 51 5 0 11 -8 13 -18z
m139 -32 c-24 -54 -33 -61 -25 -19 9 44 23 71 34 64 5 -3 1 -23 -9 -45z m5520
4 c20 -55 -40 -106 -81 -69 -27 24 -25 51 4 80 29 29 63 24 77 -11z m75 21 c4
-8 1 -22 -6 -30 -17 -20 -40 -2 -33 25 6 24 31 26 39 5z m1591 -54 c-8 -64
-27 -115 -39 -103 -14 14 -13 111 1 146 10 24 14 26 27 15 12 -10 15 -25 11
-58z m-2857 19 c-1 -16 -19 -29 -44 -32 -36 -4 -44 25 -14 46 16 12 25 12 39
3 11 -7 19 -14 19 -17z m883 -10 c-6 -23 -4 -23 -37 -10 -28 10 -26 36 2 43
24 5 41 -11 35 -33z m2252 -3 c-5 -29 -34 -116 -42 -126 -2 -3 -10 4 -18 15
-37 46 -36 50 5 95 22 24 40 48 40 52 0 5 5 5 10 2 6 -3 8 -21 5 -38z m-7421
25 c3 -5 -2 -22 -11 -38 -8 -16 -16 -49 -18 -74 -5 -78 -4 -76 -14 -62 -10 16
-5 83 11 140 12 41 21 51 32 34z m1860 -11 c9 -14 -4 -41 -20 -41 -8 0 -14 4
-14 9 0 5 -3 16 -6 25 -4 11 0 16 14 16 12 0 23 -4 26 -9z m106 -21 c24 -24
26 -72 4 -94 -44 -44 -107 10 -83 71 18 47 47 55 79 23z m460 7 c0 -7 -4 -17
-8 -22 -15 -17 -44 -125 -44 -163 0 -40 10 -108 19 -132 26 -71 41 -180 24
-180 -15 0 -19 10 -35 105 -29 169 -27 299 5 378 12 27 39 38 39 14z m130 -18
c8 -14 6 -19 -10 -24 -23 -7 -27 -47 -7 -64 15 -11 25 3 47 63 8 22 14 26 22
18 14 -14 13 -117 -1 -155 -10 -24 -13 -26 -31 -15 -11 7 -20 16 -20 20 0 18
-41 6 -56 -17 -12 -18 -14 -36 -9 -74 5 -38 3 -55 -10 -75 -19 -29 -32 -26
-46 10 -29 77 -16 241 24 297 33 47 77 55 97 16z m3930 11 c23 -23 19 -40 -10
-40 -25 0 -51 27 -44 45 8 21 30 19 54 -5z m381 -28 c-15 -36 -84 -108 -89
-93 -2 6 12 32 31 59 18 26 37 56 41 66 5 14 10 16 18 8 8 -8 8 -19 -1 -40z
m-6758 -104 c27 -176 -1 -383 -64 -470 -10 -15 -19 -30 -19 -33 0 -25 -102
-90 -127 -80 -12 4 -3 17 34 53 44 42 85 111 98 162 47 184 60 326 40 435 -8
47 -8 46 -5 65 4 30 30 -52 43 -132z m3836 118 c40 -36 12 -116 -45 -130 -50
-13 -104 28 -98 72 1 6 2 17 3 22 0 6 13 22 27 35 29 27 83 28 113 1z m1657 6
c33 -22 13 -92 -26 -92 -28 0 -52 28 -44 54 13 42 41 58 70 38z m88 -7 c3 -8
-3 -19 -13 -25 -15 -7 -20 -6 -25 6 -3 9 -4 20 0 25 8 14 31 11 38 -6z m549
-47 c-7 -14 -34 -8 -40 8 -4 11 1 22 13 31 17 12 20 12 25 -9 3 -13 4 -26 2
-30z m801 21 c23 -21 32 -112 13 -127 -25 -21 -97 -12 -97 13 0 6 -9 22 -19
34 -22 25 -18 55 12 88 23 26 59 23 91 -8z m-7226 -30 c7 -24 11 -53 10 -64
-3 -17 -5 -16 -22 9 -22 34 -32 110 -14 104 7 -3 18 -24 26 -49z m224 -4 c5
-22 6 -57 4 -80 -3 -22 -5 -49 -5 -59 -1 -16 -4 -17 -13 -8 -21 21 -28 13 -28
-32 0 -50 -14 -67 -30 -36 -6 11 -7 20 -3 20 4 0 4 4 -2 8 -5 4 -19 24 -29 45
-11 20 -22 37 -26 37 -4 0 -8 29 -9 65 -1 37 2 65 8 65 12 0 24 -36 26 -80 2
-45 21 -81 40 -74 12 5 29 39 27 54 0 3 6 12 13 20 9 10 11 20 5 30 -5 8 -10
28 -10 43 0 42 23 28 32 -18z m3728 34 c0 -4 3 -14 6 -23 4 -11 -2 -19 -17
-25 -45 -16 -64 8 -31 39 18 17 42 22 42 9z m1585 1 c3 -5 -1 -10 -9 -10 -9 0
-16 5 -16 10 0 6 4 10 9 10 6 0 13 -4 16 -10z m-1285 -38 c-1 -33 -62 -49 -68
-18 -6 27 25 48 49 35 11 -5 19 -13 19 -17z m1740 19 c0 -22 -13 -39 -26 -34
-22 8 -17 43 6 43 11 0 20 -4 20 -9z m-2991 -24 c-4 -31 3 -57 20 -78 16 -20
21 -21 35 -10 20 17 20 40 0 62 -35 38 24 54 69 19 33 -27 45 -63 42 -135 -3
-72 -35 -159 -72 -199 l-26 -29 -19 23 c-23 29 -23 41 3 85 23 38 20 72 -8
100 -12 13 -26 15 -60 10 -27 -4 -43 -2 -44 4 -1 6 -2 17 -3 24 -3 22 21 116
34 132 13 16 31 11 29 -8z m2919 6 c21 -39 -23 -86 -52 -58 -23 23 -5 75 25
75 10 0 22 -8 27 -17z m-228 -11 c0 -13 -12 -22 -22 -16 -10 6 -1 24 13 24 5
0 9 -4 9 -8z m1141 -21 c15 8 21 6 26 -7 8 -21 -54 -79 -92 -87 -22 -4 -25 -1
-25 28 0 18 5 46 11 63 l11 32 25 -20 c19 -15 30 -17 44 -9z m243 13 c10 -26
7 -42 -9 -48 -21 -8 -40 31 -24 50 15 18 25 18 33 -2z m392 -27 c-9 -37 -123
-147 -152 -147 -23 0 7 46 84 127 62 66 81 72 68 20z m-1366 14 c0 -3 -5 -13
-10 -21 -12 -19 -35 2 -27 24 6 15 37 12 37 -3z m-3886 -8 c9 -21 -16 -37 -27
-17 -9 15 -2 34 13 34 4 0 11 -8 14 -17z m1027 -15 c7 -14 9 -45 6 -85 -9 -88
-24 -112 -24 -37 0 33 -3 78 -7 102 -9 46 5 57 25 20z m1839 -3 c124 -25 283
-79 420 -142 226 -104 555 -223 670 -243 36 -6 74 -13 85 -15 11 -2 23 -4 28
-4 10 -1 -19 -56 -41 -80 -9 -10 -40 -42 -68 -72 -45 -47 -115 -112 -219 -204
-45 -39 -172 -123 -235 -155 -88 -44 -238 -91 -335 -105 -23 -3 -51 -7 -64
-10 -59 -11 -145 -18 -241 -18 -313 0 -544 57 -995 243 -55 23 -109 44 -120
46 -11 3 -24 6 -30 8 -5 1 -26 7 -45 13 -66 22 -254 34 -278 19 -5 -3 -14 -1
-22 4 -11 7 -6 18 22 52 45 55 225 235 304 305 244 214 484 325 814 376 59 9
272 -2 350 -18z m943 10 c18 -18 11 -52 -13 -65 -17 -9 -26 -4 -43 26 -7 12
19 54 33 54 5 0 15 -7 23 -15z m-5964 -55 c-1 -33 -5 -60 -8 -60 -4 0 -6 21
-5 48 2 64 3 72 9 72 3 0 4 -27 4 -60z m3871 37 c20 -17 24 -33 20 -72 -5 -53
-86 -82 -130 -47 -27 22 -32 80 -9 108 29 36 85 41 119 11z m1894 4 c3 -5 -1
-11 -9 -15 -9 -3 -15 0 -15 9 0 16 16 20 24 6z m369 -27 c-8 -20 -33 -17 -33
4 0 10 3 22 7 25 10 11 32 -13 26 -29z m1335 -9 c-2 -33 -20 -51 -39 -40 -5 3
-18 1 -30 -6 -20 -10 -21 -9 -15 17 10 39 24 53 46 49 11 -2 22 0 25 6 11 17
16 9 13 -26z m-5415 12 c8 -20 -9 -41 -26 -34 -21 8 -17 47 4 47 9 0 19 -6 22
-13z m4027 -31 c0 -28 -24 -51 -45 -42 -17 6 -20 39 -5 67 9 15 15 17 30 9 11
-6 20 -21 20 -34z m-6150 -8 c0 -14 -5 -18 -15 -15 -8 4 -17 2 -20 -3 -9 -14
-25 -12 -25 3 0 7 7 23 16 35 13 18 19 21 30 11 8 -6 14 -20 14 -31z m380 32
c0 -16 77 -97 155 -164 16 -14 67 -47 113 -72 l83 -47 -38 -38 -38 -38 -30 28
c-16 16 -37 31 -46 34 -16 5 -78 -26 -80 -40 0 -5 -2 -17 -4 -29 -6 -28 16
-57 36 -49 9 3 21 17 27 31 17 36 48 30 70 -12 6 -12 9 -32 7 -45 -3 -13 -7
-34 -9 -46 -8 -39 -46 -98 -82 -127 -46 -37 -96 -52 -175 -55 -95 -3 -99 5
-59 121 52 152 65 293 46 481 -4 32 -4 63 -1 68 8 12 25 12 25 -1z m5570 -21
c0 -5 -4 -9 -10 -9 -5 0 -10 7 -10 16 0 8 5 12 10 9 6 -3 10 -10 10 -16z m345
11 c4 -6 1 -18 -6 -26 -14 -17 -31 0 -22 23 6 16 19 17 28 3z m778 -14 c17
-25 32 -112 28 -156 -1 -8 -10 1 -19 20 -10 20 -32 42 -52 53 -39 19 -49 58
-22 90 16 18 50 15 65 -7z m-4860 -5 c13 -10 16 -31 8 -72 -2 -13 -40 -17 -55
-5 -22 16 -26 58 -9 78 16 18 34 18 56 -1z m702 -115 c17 -26 18 -31 3 -69
-11 -31 -12 -48 -5 -65 14 -31 43 -25 39 9 -5 43 26 46 44 4 7 -19 14 -41 14
-49 0 -14 -141 -194 -164 -208 -6 -4 -21 -8 -33 -8 -12 0 -28 -7 -37 -15 -20
-20 -26 -19 -21 6 2 11 -4 27 -15 37 -14 12 -20 29 -20 62 0 25 -8 77 -18 115
-20 75 -17 103 10 135 28 32 39 25 32 -20 -4 -26 -3 -40 4 -40 18 0 33 38 31
79 -2 30 4 46 24 71 15 18 35 46 44 63 l16 31 16 -55 c10 -30 26 -67 36 -83z
m1146 118 c11 -14 10 -18 -6 -30 -27 -20 -55 -18 -55 4 0 38 38 54 61 26z
m2178 -8 c14 -17 5 -62 -15 -70 -25 -9 -43 46 -23 70 14 18 24 18 38 0z m695
1 c17 -12 16 -14 -8 -25 -14 -6 -26 -18 -26 -26 0 -8 -4 -16 -8 -18 -5 -1 -28
-29 -51 -60 -24 -32 -45 -58 -48 -58 -17 0 65 167 91 186 25 17 28 17 50 1z
m-431 -28 c78 -19 88 -24 85 -43 -4 -28 -58 -45 -156 -48 l-77 -3 3 35 c6 75
15 93 40 86 10 -3 57 -15 105 -27z m-6589 -11 c-3 -5 -6 -26 -6 -49 -1 -54 -9
-42 -12 18 -3 53 2 72 15 52 4 -7 5 -17 3 -21z m2837 11 c14 -26 -1 -44 -29
-35 -16 5 -23 34 -13 54 5 10 32 -2 42 -19z m4424 -24 c1 -44 -22 -145 -35
-158 -9 -10 -13 163 -4 187 4 9 14 16 23 14 11 -2 16 -15 16 -43z m-3395 9 c0
-8 -9 -14 -20 -14 -22 0 -28 26 -7 33 16 6 27 -1 27 -19z m2280 17 c0 -6 -4
-13 -10 -16 -5 -3 -10 1 -10 9 0 9 5 16 10 16 6 0 10 -4 10 -9z m275 -11 c7
-22 -11 -53 -26 -44 -5 3 -9 15 -9 28 0 39 24 50 35 16z m889 -12 c-8 -28 -12
-33 -20 -25 -9 8 6 47 17 47 6 0 7 -10 3 -22z m-7104 -38 c0 -9 13 -29 30 -45
23 -22 27 -32 19 -42 -6 -7 -15 -13 -20 -13 -11 0 -40 56 -33 63 3 3 -4 10
-15 16 -14 8 -19 19 -17 34 3 12 5 27 6 32 1 16 30 -27 30 -45z m6690 19 c0
-11 -4 -17 -10 -14 -5 3 -10 15 -10 26 0 11 5 17 10 14 6 -3 10 -15 10 -26z
m-49 -24 c1 -14 2 -31 3 -37 2 -7 -3 -28 -10 -46 -14 -35 -14 -34 -14 -57 0
-31 -16 -13 -32 38 -22 67 -22 86 -1 109 24 27 53 23 54 -7z m706 16 c18 -1
20 -43 5 -68 -19 -30 -45 -29 -62 2 -7 14 -19 25 -27 25 -18 0 -16 27 3 38 9
5 28 8 42 6 15 -1 32 -2 39 -3z m-7490 -16 c0 -8 -4 -12 -9 -9 -5 3 -6 10 -3
15 9 13 12 11 12 -6z m3061 -12 c-3 -32 -44 -46 -54 -19 -10 26 4 46 31 46 23
0 26 -4 23 -27z m-768 8 c0 -17 -18 -21 -24 -6 -3 9 0 15 9 15 8 0 15 -4 15
-9z m1555 -41 c9 -39 -9 -68 -48 -78 -40 -12 -70 12 -73 58 -5 69 106 87 121
20z m3981 21 c-8 -13 -36 -15 -36 -3 0 4 5 13 12 20 14 14 34 0 24 -17z
m-7778 -28 c31 -111 31 -114 13 -130 -12 -9 -17 -25 -14 -41 8 -55 8 -65 -3
-69 -7 -2 -12 19 -13 59 -6 160 -6 218 0 218 3 0 11 -17 17 -37z m3881 23 c15
-17 -12 -48 -34 -40 -19 8 -19 19 1 38 19 19 19 19 33 2z m3116 4 c28 -11 45
-46 49 -104 3 -34 0 -39 -24 -48 -25 -8 -27 -13 -26 -58 1 -26 -3 -52 -7 -56
-11 -11 -58 48 -52 64 7 19 22 138 24 190 1 25 1 25 36 12z m-7051 -27 c-7
-29 -21 -50 -28 -42 -2 2 -7 16 -11 31 -5 20 -3 27 12 31 32 8 33 7 27 -20z
m2186 12 c0 -8 -4 -15 -10 -15 -5 0 -10 7 -10 15 0 8 5 15 10 15 6 0 10 -7 10
-15z m4502 -17 c-15 -15 -24 -6 -16 16 5 12 10 14 17 7 8 -8 8 -14 -1 -23z
m-4402 -42 c0 -29 -13 -47 -36 -50 -29 -5 -44 13 -44 51 0 26 5 36 23 42 27
11 57 -12 57 -43z m5121 27 c25 -25 37 -117 20 -143 -14 -20 -21 -10 -26 41
-3 23 -16 58 -29 78 -14 19 -23 37 -21 41 9 14 35 6 56 -17z m-7273 -27 c18
-50 36 -61 64 -42 12 9 28 26 35 38 18 33 17 0 -2 -45 -15 -36 -51 -77 -67
-77 -5 0 -19 11 -32 25 -17 18 -23 38 -25 80 -2 62 9 71 27 21z m-169 -65 c2
-31 -18 6 -23 44 l-6 40 14 -35 c8 -19 15 -42 15 -49z m3246 27 c-46 -91 -91
-158 -108 -158 -16 0 -16 2 1 33 9 17 40 64 67 103 51 72 70 83 40 22z m479
37 c3 -9 -1 -18 -10 -22 -19 -7 -28 2 -21 22 8 19 23 19 31 0z m3023 -35 c40
-80 -27 -293 -104 -329 -29 -13 -31 6 -5 35 37 40 53 135 33 204 -9 33 3 100
20 111 22 14 42 6 56 -21z m611 8 c-2 -7 -11 -21 -20 -32 -10 -11 -18 -29 -19
-40 -4 -82 -1 -78 -52 -91 l-48 -12 7 31 c3 17 11 34 16 37 5 3 9 10 7 14 -3
10 20 43 53 77 27 28 60 38 56 16z m168 -10 c-3 -13 -5 -27 -5 -31 -1 -5 -5
-5 -11 -2 -16 10 -12 55 5 55 10 0 14 -7 11 -22z m-894 -15 c9 -37 -7 -67 -39
-75 -18 -5 -41 -21 -53 -36 l-22 -27 -18 23 c-25 31 -16 49 35 73 24 11 51 29
61 40 21 24 30 24 36 2z m-4112 -90 c17 -48 30 -98 28 -112 -3 -24 -7 -26 -53
-25 l-50 0 1 40 c2 50 14 165 20 182 8 25 22 2 54 -85z m4880 67 c0 -11 -5
-29 -12 -39 -9 -15 -9 -23 1 -35 7 -9 16 -14 20 -12 15 10 33 -12 26 -33 -7
-23 -34 -27 -66 -10 -35 18 -19 149 18 149 7 0 13 -9 13 -20z m-5056 -11 c-3
-5 -10 -7 -15 -3 -5 3 -7 10 -3 15 3 5 10 7 15 3 5 -3 7 -10 3 -15z m1402 -26
c6 -36 -21 -57 -68 -54 -20 1 -32 33 -23 62 15 45 84 39 91 -8z m-3716 15 c0
-12 -3 -18 -7 -14 -11 10 -12 36 -2 36 5 0 9 -10 9 -22z m3810 14 c0 -5 -6
-17 -14 -28 -11 -15 -17 -16 -27 -7 -16 16 -4 43 21 43 11 0 20 -4 20 -8z
m3809 -67 c-18 -30 -37 -55 -41 -55 -16 0 -23 5 -25 20 -3 18 90 115 95 100 2
-6 -11 -35 -29 -65z m-5395 44 c-3 -5 -10 -7 -15 -3 -5 3 -7 10 -3 15 3 5 10
7 15 3 5 -3 7 -10 3 -15z m-1234 -67 c53 -29 113 -51 157 -58 52 -8 114 -10
118 -3 8 12 73 8 78 -6 7 -18 -6 -28 -75 -58 -115 -51 -196 -122 -259 -227
-57 -96 -77 -156 -86 -258 -3 -34 -10 -65 -15 -68 -15 -10 -58 37 -88 96 -40
81 -52 134 -52 235 1 88 7 119 31 158 49 80 138 93 109 17 -19 -50 -19 -69 1
-80 27 -14 61 22 61 66 0 41 -40 90 -80 99 -26 6 -29 10 -27 43 2 20 -1 48 -5
61 -5 15 -4 29 3 37 10 12 17 11 48 -7 20 -12 56 -33 81 -47z m1300 33 c15
-18 6 -61 -15 -68 -22 -9 -47 21 -39 47 11 36 34 45 54 21z m-2124 -28 c25 9
15 -18 -17 -48 -42 -40 -63 -39 -55 2 3 17 6 43 6 56 l0 24 26 -20 c14 -11 32
-17 40 -14z m630 25 c13 -9 31 -43 29 -57 -4 -27 -25 -63 -41 -69 -42 -16 -79
26 -67 75 12 47 49 71 79 51z m1910 -71 c-2 -39 -8 -54 -31 -75 -15 -14 -30
-24 -32 -22 -6 6 18 127 29 149 17 32 36 2 34 -52z m874 59 c0 -5 -5 -10 -11
-10 -5 0 -7 5 -4 10 3 6 8 10 11 10 2 0 4 -4 4 -10z m3547 -7 c5 -14 -2 -62
-21 -135 -3 -9 -10 -27 -17 -40 -7 -13 -12 -26 -11 -30 1 -3 -5 -11 -13 -18
-12 -10 -14 0 -11 72 4 85 9 106 34 146 17 26 30 28 39 5z m-542 -3 c3 -5 -1
-19 -9 -31 -18 -26 -11 -49 16 -49 17 0 19 -4 13 -27 -10 -42 -24 -54 -46 -43
-14 8 -23 6 -38 -9 -24 -24 -31 -18 -31 28 1 76 70 171 95 131z m241 -47 c3
-15 7 -30 9 -33 2 -4 7 -22 10 -40 3 -19 11 -40 17 -47 7 -9 7 -22 0 -42 -6
-16 -8 -32 -5 -35 4 -3 -5 -6 -18 -6 -57 0 -84 122 -50 224 11 32 15 36 23 22
5 -9 12 -29 14 -43z m-390 34 c15 -9 11 -46 -10 -119 -11 -40 -27 -68 -54 -92
-20 -20 -40 -36 -44 -36 -4 0 -13 -6 -20 -13 -53 -51 -201 -140 -224 -135 -13
2 1 22 52 74 39 40 88 98 109 130 22 33 42 61 45 64 3 3 21 29 39 58 46 72 74
90 107 69z m580 -101 c7 -79 -1 -100 -26 -61 -16 26 -24 77 -21 140 1 19 1 19
21 -1 15 -14 23 -38 26 -78z m509 44 c6 -30 -6 -50 -15 -24 -7 18 -1 59 7 51
2 -2 6 -15 8 -27z m-5406 -9 c71 -36 88 -101 33 -122 -39 -15 -122 32 -150 85
-12 22 -22 44 -22 48 0 21 91 15 139 -11z m1495 23 c17 -6 22 -50 8 -71 -12
-19 -57 -26 -69 -11 -41 52 -1 106 61 82z m76 -4 c0 -5 -5 -10 -11 -10 -5 0
-7 5 -4 10 3 6 8 10 11 10 2 0 4 -4 4 -10z m-655 -20 c7 -23 -20 -118 -40
-139 -11 -11 -16 -8 -29 17 -22 43 -21 52 16 100 36 47 44 50 53 22z m292
-100 c-14 -56 -27 -103 -30 -106 -10 -10 -127 31 -127 45 0 19 171 188 177
174 2 -6 -7 -57 -20 -113z m3947 104 c3 -9 6 -29 6 -46 0 -27 -3 -30 -22 -23
-47 15 -72 7 -110 -35 -21 -23 -42 -49 -47 -58 -5 -9 -12 -14 -15 -11 -10 10
33 83 80 137 35 40 52 52 74 52 16 0 30 -7 34 -16z m97 -17 c-1 -4 -1 -14 -1
-23 0 -8 -4 -12 -10 -9 -13 8 -13 48 1 43 6 -2 10 -7 10 -11z m-5444 -10 c26
-9 41 -52 26 -76 -5 -8 -24 -18 -41 -22 -25 -5 -39 0 -82 33 -29 22 -63 44
-77 49 -13 5 -22 13 -19 17 6 10 164 9 193 -1z m4794 -34 c-9 -16 -10 -14 -11
12 0 21 3 26 11 18 8 -8 8 -16 0 -30z m-6011 -4 c0 -10 -10 -29 -22 -41 l-23
-23 -3 27 c-4 35 14 69 33 62 8 -4 15 -15 15 -25z m6757 -11 c-6 -20 -61 -68
-80 -68 -11 0 6 34 37 73 31 40 53 37 43 -5z m-153 -34 c-16 -54 -30 -74 -51
-74 -25 0 -73 40 -73 61 0 25 31 25 54 0 24 -27 44 -16 57 30 7 21 15 36 20
34 4 -3 1 -26 -7 -51z m-5644 41 c11 -4 20 -13 20 -20 0 -8 -6 -12 -14 -9 -26
10 -130 -16 -191 -47 -95 -49 -161 -116 -221 -229 -71 -132 -96 -226 -95 -361
0 -66 -3 -90 -15 -100 -63 -52 -68 231 -8 422 41 130 126 238 229 292 80 42
239 70 295 52z m591 -11 c17 -21 17 -108 0 -128 -12 -14 -16 -14 -39 4 -16 13
-29 17 -35 11 -12 -12 -37 -3 -37 15 0 7 11 21 24 30 14 8 30 31 36 50 13 37
30 43 51 18z m466 0 c14 -38 -48 -154 -67 -124 -11 18 -27 1 -57 -60 -18 -37
-22 -40 -20 -18 2 15 6 30 10 34 4 4 7 14 7 23 0 9 14 27 31 40 20 16 29 31
27 47 -3 23 33 74 52 74 6 0 13 -7 17 -16z m778 6 c3 -5 -1 -10 -9 -10 -9 0
-16 5 -16 10 0 6 4 10 9 10 6 0 13 -4 16 -10z m-2732 -24 c6 -15 -14 -58 -27
-60 -14 -2 -24 37 -15 61 9 24 33 23 42 -1z m1735 4 c21 -20 25 -29 25 -65 0
-45 -4 -63 -18 -81 -14 -19 -15 -19 -21 3 -3 11 -23 35 -45 52 -35 29 -37 34
-28 58 22 58 49 68 87 33z m3962 -12 c0 -6 7 -19 15 -28 27 -29 13 -44 -100
-107 -39 -21 -75 -30 -75 -17 0 4 24 30 54 58 29 28 61 66 70 84 16 30 36 36
36 10z m-3556 -23 c26 -27 30 -57 10 -72 -18 -13 -18 -15 2 -51 20 -34 20 -40
7 -79 -8 -23 -21 -44 -29 -47 -11 -4 -12 -1 -6 12 12 23 12 94 -1 110 -14 17
-27 15 -27 -5 0 -16 -1 -16 -17 0 -24 24 -23 100 2 127 22 24 38 25 59 5z
m682 -12 c-10 -10 -19 5 -10 18 6 11 8 11 12 0 2 -7 1 -15 -2 -18z m3134 -21
c0 -56 -28 -115 -74 -154 -38 -34 -93 -41 -124 -15 -15 12 -12 53 3 50 16 -3
44 27 39 41 -5 14 51 96 66 96 6 0 10 -7 10 -15 0 -27 31 -16 41 15 17 48 39
38 39 -18z m-4954 0 c61 -31 111 -92 119 -145 9 -58 4 -91 -15 -95 -11 -2 -16
6 -18 25 -1 16 -15 40 -32 56 -18 16 -30 38 -30 53 0 13 -9 33 -19 43 -24 24
-55 18 -89 -16 -27 -27 -47 -30 -56 -8 -10 28 -67 45 -115 34 -49 -11 -68 -4
-50 18 50 60 218 79 305 35z m239 4 c27 -41 29 -88 6 -118 -19 -24 -25 -26
-52 -16 -34 12 -79 66 -79 95 0 16 9 22 34 27 19 4 37 13 40 21 8 22 34 18 51
-9z m761 -21 c2 -37 38 -116 60 -128 27 -15 13 -60 -62 -206 -108 -206 -162
-286 -180 -268 -19 19 -30 82 -23 135 5 31 11 80 15 107 12 91 15 107 30 190
8 44 25 85 36 85 15 0 95 86 103 110 9 29 18 17 21 -25z m763 23 c12 -31 -4
-58 -34 -58 -26 0 -45 26 -37 50 12 36 59 41 71 8z m-1427 -25 c19 -23 30 -50
35 -88 2 -16 11 -56 20 -88 14 -50 14 -60 2 -68 -48 -30 -115 37 -101 104 4
22 28 22 36 0 5 -11 10 -13 17 -6 17 17 6 57 -20 70 -32 15 -44 39 -37 69 7
28 27 31 48 7z m278 2 c0 -8 -4 -15 -10 -15 -5 0 -10 7 -10 15 0 8 5 15 10 15
6 0 10 -7 10 -15z m4381 -28 c-8 -8 -11 -5 -11 9 0 27 14 41 18 19 2 -9 -1
-22 -7 -28z m203 20 c24 -21 25 -25 12 -36 -9 -7 -22 -11 -31 -7 -19 7 -38
-28 -30 -55 8 -25 44 -40 68 -27 24 13 22 4 -18 -51 -19 -26 -35 -53 -35 -58
0 -5 -5 -14 -12 -21 -9 -9 -14 -6 -22 11 -7 12 -23 24 -36 26 -14 1 -28 8 -32
14 -10 16 1 58 29 107 14 25 35 62 47 82 12 21 24 38 27 38 3 0 18 -10 33 -23z
m210 -19 c-7 -10 -34 -10 -34 0 0 4 5 13 12 20 9 9 14 9 19 0 4 -7 5 -16 3
-20z m-6868 -23 c12 -8 24 -12 26 -9 3 2 10 -2 17 -10 9 -11 4 -17 -26 -33
l-38 -20 -18 24 c-19 25 -15 63 6 63 7 0 22 -7 33 -15z m2114 5 c12 -8 13 -14
1 -46 -16 -44 -52 -79 -63 -61 -4 6 2 26 14 45 15 25 18 36 9 45 -6 6 -11 15
-11 19 0 11 32 10 50 -2z m798 -18 c16 -21 15 -57 -2 -72 -8 -6 -34 -14 -58
-16 -24 -3 -56 -12 -72 -20 -27 -13 -56 -19 -56 -10 0 1 5 18 12 37 16 46 47
78 93 94 42 14 63 11 83 -13z m3629 -6 c-4 -9 -11 -16 -17 -16 -11 0 -14 33
-3 44 11 10 26 -11 20 -28z m-4567 1 c0 -26 -36 -71 -50 -62 -5 3 -16 -5 -25
-17 -12 -18 -17 -20 -24 -9 -13 21 -1 51 24 57 13 3 33 17 46 30 28 30 29 30
29 1z m4508 -9 c15 -15 16 -98 2 -98 -6 0 -13 7 -16 15 -4 8 -14 15 -24 15
-26 0 -32 27 -14 56 18 26 34 30 52 12z m309 -5 c2 -5 -12 -14 -32 -20 -40
-13 -42 -11 -19 16 17 19 45 22 51 4z m-5538 -6 c6 -8 12 -24 14 -37 2 -12 11
-28 19 -34 10 -7 16 -28 16 -56 0 -25 2 -52 5 -60 21 -73 21 -69 -22 -109 -24
-23 -41 -48 -42 -62 -1 -13 -2 -42 -3 -64 -3 -74 -28 -86 -52 -26 -18 46 -49
70 -94 73 -17 1 -34 6 -36 10 -2 4 17 23 43 42 98 73 125 115 117 182 -6 57
-41 84 -106 84 -51 0 -51 0 -33 20 34 38 152 63 174 37z m185 7 c9 -3 16 -13
16 -21 0 -17 -59 -73 -77 -73 -7 0 -13 -7 -13 -15 0 -15 -21 -21 -32 -9 -12
11 17 77 45 100 30 26 36 27 61 18z m734 -28 c2 -10 -1 -23 -6 -28 -12 -12
-64 -20 -59 -10 21 47 33 62 46 60 9 -2 17 -12 19 -22z m4745 10 c8 -20 -35
-97 -52 -94 -20 4 -21 56 -3 86 16 24 47 30 55 8z m-785 -19 c5 -24 -24 -56
-67 -74 -36 -15 -151 -19 -175 -6 -24 14 -4 31 44 38 62 8 111 24 140 46 30
22 53 20 58 -4z m-2951 -44 c-3 -15 5 -37 19 -59 40 -59 24 -84 -31 -48 -18
12 -28 13 -44 5 -11 -6 -24 -11 -29 -11 -18 0 -21 42 -6 79 24 60 102 90 91
34z m251 26 c76 -19 81 -31 29 -67 -38 -26 -57 -31 -121 -34 -69 -4 -78 -2
-97 18 -26 28 -20 66 13 82 30 14 118 15 176 1z m3374 -21 c12 -20 10 -41 -7
-65 -8 -12 -15 -34 -14 -50 3 -48 0 -53 -29 -53 -15 0 -33 -5 -39 -11 -14 -14
-24 2 -30 46 -5 36 22 108 51 137 18 18 55 16 68 -4z m-4782 -13 c9 -23 15
-26 57 -24 99 4 112 -3 71 -41 -12 -11 -18 -20 -13 -20 5 0 0 -6 -11 -14 -17
-13 -21 -12 -37 5 -10 10 -27 20 -37 20 -11 1 -24 3 -30 4 -5 1 -14 3 -19 4
-14 2 -20 41 -11 67 12 31 18 30 30 -1z m-308 -35 c-2 -49 -19 -100 -33 -100
-5 0 -9 5 -9 11 0 6 -11 34 -25 62 -14 28 -24 56 -21 62 2 7 23 11 48 11 l43
-1 -3 -45z m4469 33 c3 -35 -2 -48 -27 -71 -20 -18 -29 -20 -45 -12 -19 10
-18 13 18 55 42 49 52 54 54 28z m-3232 -22 c-15 -5 -22 6 -14 19 6 9 10 9 16
-1 5 -8 4 -15 -2 -18z m-1461 11 c16 -10 -7 -61 -50 -111 -16 -18 -34 -45 -39
-59 -22 -57 -47 41 -26 102 19 58 77 92 115 68z m4865 -4 c2 -7 0 -21 -5 -31
-5 -9 -6 -21 -3 -26 6 -11 -13 -66 -21 -58 -3 3 -8 23 -10 44 -6 53 25 108 39
71z m-6417 -13 c9 -9 13 -23 9 -34 -3 -11 -1 -38 5 -60 12 -47 3 -121 -16
-121 -27 0 -51 161 -31 213 8 21 14 21 33 2z m1195 3 c25 -9 49 -44 49 -72 0
-24 -42 -67 -96 -97 -69 -39 -117 -89 -161 -167 -19 -34 -39 -60 -44 -56 -21
13 4 214 33 265 24 41 80 98 117 118 40 21 64 23 102 9z m5320 -25 c13 -41 16
-164 5 -228 -13 -74 -87 -275 -101 -275 -6 0 2 27 31 110 34 94 39 254 11 307
-34 63 -24 123 19 123 17 0 25 -9 35 -37z m-3544 10 c2 -6 -5 -14 -16 -18 -18
-5 -20 -12 -14 -51 5 -36 3 -44 -10 -44 -40 0 -62 84 -31 115 18 18 65 17 71
-2z m-942 -10 c-2 -10 -4 -21 -4 -25 -2 -13 -48 -58 -61 -58 -15 0 -7 23 23
67 24 35 47 44 42 16z m826 0 c9 -57 7 -63 -14 -63 -24 1 -57 22 -57 37 0 24
68 49 71 26z m877 -36 c57 -18 103 -37 103 -42 -1 -6 -22 -11 -48 -12 -27 0
-61 -5 -78 -9 -59 -16 -123 -9 -144 15 -16 18 -18 27 -9 46 19 43 44 43 176 2z
m-1461 -4 c5 -14 -40 -63 -57 -63 -16 0 -12 34 8 58 18 23 43 26 49 5z m3705
-5 c23 -27 32 -60 23 -88 -10 -31 -29 -19 -33 20 -2 18 -10 43 -18 55 -8 12
-11 25 -7 28 10 11 14 9 35 -15z m368 -8 c0 -31 -23 -51 -40 -34 -15 16 1 64
21 64 14 0 19 -7 19 -30z m-4458 -14 c4 3 8 -3 8 -13 0 -25 -105 -119 -170
-151 -63 -31 -161 -40 -180 -17 -9 11 -5 17 17 31 15 10 37 27 48 39 24 23 58
75 50 75 -3 0 -1 9 5 20 6 11 17 20 25 20 24 0 22 -43 -4 -92 -30 -56 -21 -77
22 -55 44 23 75 73 91 149 l6 28 37 -20 c20 -10 40 -17 45 -14z m1231 2 c8
-18 25 -39 40 -47 17 -9 24 -20 21 -34 -6 -34 -28 -40 -38 -12 -6 14 -15 25
-22 25 -23 0 -43 29 -38 57 10 52 19 55 37 11z m2637 22 c0 -5 -8 -18 -18 -28
-56 -56 -96 -132 -109 -207 -3 -16 -8 -48 -12 -70 -17 -94 -2 -213 40 -300 34
-71 59 -102 117 -140 43 -28 51 -40 30 -47 -15 -5 -78 15 -78 24 0 5 -7 8 -15
8 -26 0 -117 102 -146 164 -32 69 -42 112 -40 175 4 128 49 252 132 356 44 56
99 92 99 65z m164 -22 c23 -33 21 -125 -4 -165 -33 -55 -57 -36 -35 27 12 36
12 56 -1 123 -5 30 -4 37 9 37 9 0 23 -10 31 -22z m169 2 c37 -22 78 -27 114
-15 21 7 22 6 13 -22 -6 -16 -24 -44 -40 -62 -23 -25 -36 -31 -57 -27 -16 2
-31 5 -35 5 -12 1 -9 61 2 61 6 0 10 7 10 15 0 10 -10 15 -30 15 -22 0 -30 5
-30 18 0 16 8 32 16 32 2 0 18 -9 37 -20z m535 4 c13 -24 -4 -122 -38 -214
-34 -91 -91 -212 -98 -205 -2 2 9 37 26 77 30 73 47 153 57 263 8 83 31 118
53 79z m-4988 -16 c0 -22 -38 -76 -65 -94 -21 -13 -31 -15 -50 -6 -14 7 -25
18 -25 25 0 24 27 51 55 54 16 2 37 11 49 19 25 17 36 18 36 2z m1739 -40
c-17 -23 -28 -28 -64 -28 -35 0 -47 -5 -56 -21 -9 -17 -8 -25 5 -38 14 -13 18
-14 25 -2 5 8 16 11 26 8 15 -6 15 -9 -1 -36 -31 -53 -116 -75 -156 -40 l-23
19 30 22 c17 13 44 38 60 58 59 68 98 99 129 102 41 4 49 -10 25 -44z m-1275
34 c8 -13 -6 -27 -45 -45 -41 -19 -99 -79 -125 -128 -33 -65 -64 -78 -64 -29
0 36 30 99 67 140 44 50 150 89 167 62z m1416 -14 c11 -12 20 -25 20 -29 0 -3
14 -12 30 -19 36 -15 37 -20 8 -47 -49 -44 -158 -55 -172 -17 -17 43 1 82 51
116 35 23 38 23 63 -4z m3188 -25 c-2 -29 -8 -48 -17 -51 -11 -4 -13 3 -7 34
4 22 8 45 8 52 1 6 5 12 10 12 5 0 8 -21 6 -47z m-3865 13 c98 -38 97 -37 127
-16 24 17 29 18 34 4 7 -17 -5 -44 -27 -63 -11 -9 -26 -9 -63 0 -67 16 -84 17
-122 8 -35 -8 -41 -1 -58 66 -5 22 -3 25 21 25 14 0 54 -11 88 -24z m2991 8
c25 -10 19 -43 -9 -54 -25 -9 -35 -43 -16 -54 5 -3 12 -22 15 -41 4 -22 17
-41 33 -52 22 -15 28 -15 51 -2 14 8 35 31 46 53 12 21 34 45 49 55 27 15 29
15 42 -3 13 -17 11 -25 -13 -70 -22 -41 -32 -50 -50 -49 -21 3 -42 -6 -129
-51 -73 -38 -105 -23 -77 37 23 47 10 72 -28 53 -24 -13 -27 -12 -31 6 -7 24
14 97 37 129 9 13 26 29 38 36 28 15 23 14 42 7z m463 -37 c18 -11 17 -47 -2
-47 -24 0 -87 -36 -114 -65 -25 -27 -36 -31 -46 -15 -3 5 7 16 22 24 37 19 61
49 85 104 18 40 22 43 31 26 6 -10 16 -23 24 -27z m-6374 -13 c-3 -8 -12 -14
-19 -14 -13 0 -14 17 -5 60 1 3 8 -3 16 -13 7 -11 11 -25 8 -33z m2784 8 c11
-26 10 -33 -3 -47 -14 -14 -19 -14 -38 -2 -24 16 -34 66 -15 77 22 14 43 3 56
-28z m3709 -3 c35 -39 19 -224 -23 -271 -22 -24 -27 -23 -40 12 -9 23 -18 30
-37 30 -14 0 -26 6 -26 13 0 14 39 93 63 127 12 17 13 29 6 48 -21 54 19 83
57 41z m-4302 -13 c-3 -8 -18 -18 -33 -21 -29 -6 -96 -63 -124 -105 -11 -16
-17 -19 -17 -9 0 21 46 75 99 115 46 35 85 45 75 20z m1862 -16 c163 -65 268
-167 324 -315 37 -98 29 -293 -17 -405 -3 -8 -7 -20 -9 -27 -4 -23 -59 -125
-77 -144 -21 -23 -31 -24 -47 -4 -10 12 -6 26 21 77 52 100 68 176 64 298 -1
58 -10 132 -19 164 -19 69 -57 156 -68 156 -5 0 -8 6 -8 12 0 28 -134 137
-207 169 -40 18 -70 36 -67 41 9 14 33 9 110 -22z m1568 22 c3 -5 -15 -44 -40
-88 -93 -161 -122 -315 -90 -472 21 -102 16 -115 -38 -109 -130 16 -273 110
-314 205 -25 57 -24 137 1 175 17 26 73 46 87 31 4 -5 13 -26 20 -46 9 -30 17
-38 35 -38 30 0 55 25 55 53 -1 55 -84 104 -144 85 -17 -5 -38 -11 -46 -14
-16 -4 -70 65 -70 89 0 9 17 13 58 13 130 0 269 32 387 89 74 35 91 40 99 27z
m-3300 -10 c9 -15 11 -177 1 -181 -5 -2 -24 17 -42 43 -29 42 -31 49 -20 74
26 59 49 83 61 64z m811 -84 c6 -39 4 -48 -8 -48 -18 0 -47 42 -47 69 0 11 7
27 17 36 20 21 28 9 38 -57z m775 49 c34 -7 94 -30 132 -52 50 -29 118 -92
118 -111 0 -19 -9 -18 -50 7 -59 37 -115 49 -146 33 -37 -20 -42 -18 -65 20
-22 37 -71 66 -99 59 -10 -3 -32 -20 -50 -39 -21 -24 -39 -34 -59 -34 -19 0
-39 -11 -60 -32 -25 -26 -34 -30 -40 -19 -22 35 56 133 116 147 16 4 34 11 41
17 6 5 12 7 12 4 0 -2 15 -1 33 3 29 6 76 5 117 -3z m-3185 -107 c-3 -41 -14
-54 -31 -39 -8 6 -14 8 -14 3 0 -23 -25 22 -27 49 -2 18 -3 41 -4 52 -4 48 3
49 40 6 28 -31 38 -51 36 -71z m791 85 c3 -14 19 -36 36 -50 36 -30 30 -47
-14 -35 -60 18 -87 61 -63 100 12 19 35 10 41 -15z m2935 -22 c98 -49 200 -59
396 -38 63 7 73 5 79 -9 4 -10 0 -22 -10 -29 -9 -7 -23 -30 -31 -52 -13 -40
-14 -40 -59 -37 -90 7 -146 -33 -146 -103 0 -20 8 -29 33 -40 29 -13 33 -13
49 6 12 14 16 31 12 53 -11 70 60 66 104 -6 61 -99 3 -265 -134 -386 -54 -47
-144 -95 -157 -83 -5 5 -1 31 8 57 11 29 19 89 21 148 7 193 -57 337 -205 466
-98 85 -78 112 40 53z m-2522 1 c-6 -7 -15 -11 -21 -8 -5 3 -4 12 3 20 6 7 15
11 21 8 5 -3 4 -12 -3 -20z m4881 12 c0 -16 -24 -38 -33 -30 -8 9 11 44 23 44
6 0 10 -6 10 -14z m-3763 -41 c67 -44 107 -115 107 -189 0 -38 -5 -52 -22 -67
-39 -31 -58 -12 -68 69 -7 59 -42 118 -95 163 -38 32 -47 44 -39 54 9 11 19
11 53 -1 23 -8 52 -21 64 -29z m-320 5 c6 -14 9 -37 6 -51 -4 -23 -16 -30 -89
-54 -47 -15 -87 -25 -91 -22 -3 4 12 26 33 49 22 24 51 58 64 76 29 39 59 39
77 2z m3641 22 c27 -18 -22 -81 -62 -82 -10 0 -34 -10 -53 -21 -19 -12 -36
-20 -38 -17 -10 10 41 70 82 97 51 34 52 34 71 23z m-2892 -17 c16 -8 37 -15
47 -15 30 0 19 -34 -19 -55 -19 -10 -48 -29 -62 -42 -15 -13 -30 -23 -35 -23
-11 0 1 73 21 123 13 32 12 31 48 12z m3240 -36 c-7 -47 -22 -79 -36 -79 -5 0
-1 24 10 54 10 30 16 57 13 60 -4 3 -1 6 7 6 9 0 11 -11 6 -41z m-541 -2 c-9
-49 -28 -107 -35 -107 -4 0 -11 -11 -14 -25 -4 -14 -11 -25 -16 -25 -13 0 -13
33 -1 46 5 5 12 26 15 47 7 47 34 100 46 92 5 -3 7 -15 5 -28z m-4906 -3 c35
-25 50 -70 39 -113 -16 -60 -85 -119 -122 -105 -22 8 -35 55 -23 82 12 27 27
28 34 2 8 -30 31 -23 52 17 14 28 6 65 -19 81 -49 30 -110 -34 -124 -132 -4
-21 -10 -45 -15 -54 -15 -26 -34 24 -28 72 12 82 34 129 75 150 36 20 102 20
131 0z m1657 -6 c16 -12 35 -30 42 -40 7 -9 18 -23 26 -30 17 -18 36 -54 46
-89 14 -47 -13 -35 -34 15 -19 45 -75 112 -110 132 -11 6 -22 16 -24 22 -6 19
23 14 54 -10z m957 -36 c12 -25 14 -35 9 -84 -2 -19 -32 -26 -32 -8 0 5 -15
27 -33 47 -43 48 -50 69 -31 88 14 13 18 13 44 0 17 -9 36 -28 43 -43z m-2365
-1 c17 -5 72 -9 122 -9 50 1 96 -4 101 -9 19 -19 6 -48 -22 -51 -16 -2 -32
-13 -39 -28 -13 -23 -40 -34 -40 -15 0 13 -49 25 -90 22 -35 -2 -52 9 -91 57
-39 47 -34 100 5 63 13 -12 37 -25 54 -30z m364 2 c-4 -24 -3 -26 10 -16 21
18 31 3 14 -22 -8 -12 -16 -32 -18 -46 -5 -35 -39 -32 -49 4 -11 41 14 106 42
107 3 0 4 -12 1 -27z m1413 16 c17 -1 37 0 45 2 11 3 14 -4 13 -26 -8 -100 9
-152 59 -183 41 -24 55 -6 41 54 -9 41 -8 49 8 65 20 20 38 25 40 12 1 -5 3
-30 5 -57 4 -54 22 -89 67 -125 27 -22 28 -25 12 -37 -27 -20 -135 17 -202 68
-51 39 -124 124 -147 169 -28 57 -27 70 7 63 12 -2 36 -5 52 -5z m3461 -16
c-10 -10 -19 5 -10 18 6 11 8 11 12 0 2 -7 1 -15 -2 -18z m-1707 -17 c37 -40
18 -107 -34 -120 -56 -14 -98 51 -69 105 23 45 69 52 103 15z m-1282 -23 c26
-17 34 -36 38 -83 3 -39 -8 -66 -38 -92 -28 -25 -36 -22 -35 10 1 16 -6 42
-14 58 -25 47 -39 117 -25 126 14 9 43 1 74 -19z m-1797 9 c0 -13 -12 -22 -22
-16 -10 6 -1 24 13 24 5 0 9 -4 9 -8z m2157 -43 c83 -62 91 -97 16 -68 -15 6
-44 13 -64 15 -32 4 -40 0 -68 -31 -17 -20 -32 -42 -32 -50 -1 -8 -2 -25 -3
-37 -3 -30 28 -92 71 -145 40 -50 37 -66 -10 -52 -53 15 -82 10 -128 -21 -24
-16 -50 -30 -56 -30 -19 0 -16 32 7 81 26 59 25 92 -5 127 -32 39 -32 46 9 85
18 17 43 51 55 75 12 23 29 42 37 42 9 0 28 13 43 29 34 37 56 33 128 -20z
m1938 6 c0 -28 -3 -30 -38 -31 -20 -1 -46 -9 -56 -18 -29 -27 -88 -32 -111
-11 -30 27 -25 33 29 32 41 -2 56 3 92 30 55 41 84 40 84 -2z m-261 -86 c51
-58 91 -62 159 -19 65 41 73 40 67 -15 -10 -102 -183 -122 -247 -28 -30 44
-43 81 -43 122 0 54 12 58 27 9 7 -24 24 -55 37 -69z m536 101 c10 -5 22 -22
27 -37 36 -103 -60 -251 -114 -177 -27 38 -5 124 33 124 16 0 19 -31 4 -46 -8
-8 -6 -15 5 -24 31 -25 57 22 46 82 -3 19 -46 47 -72 46 -38 -1 -47 9 -23 27
22 17 67 19 94 5z m-4930 -30 c0 -20 -23 -43 -33 -33 -9 8 -9 48 -1 56 11 11
34 -5 34 -23z m739 13 c-8 -10 -16 -20 -19 -23 -41 -37 -74 -123 -89 -228 -11
-81 -12 -85 -35 -80 -14 3 -14 6 -3 28 7 14 13 43 13 65 -1 34 -4 40 -21 38
-11 -1 -24 -9 -30 -18 -5 -9 -22 -31 -37 -48 -15 -18 -28 -41 -28 -52 0 -31
-16 -49 -35 -41 -24 9 -15 52 35 152 30 62 55 96 106 143 69 65 93 79 133 80
21 1 22 -1 10 -16z m-1494 -23 c4 -6 11 -8 16 -5 5 4 13 -4 18 -17 17 -43 -65
-108 -137 -108 -21 0 -43 5 -50 12 -13 13 -16 48 -4 48 4 0 12 10 17 23 7 15
20 23 44 25 19 2 44 10 55 18 24 17 33 17 41 4z m2946 -22 c18 -18 35 -32 38
-32 18 4 47 -21 49 -41 4 -49 -63 -56 -104 -11 -24 25 -41 87 -29 105 9 15 10
15 46 -21z m3059 12 c0 -23 -55 -88 -65 -78 -9 9 42 98 55 98 6 0 10 -9 10
-20z m-4917 -5 c12 -5 12 -12 -1 -50 -17 -52 -36 -58 -50 -16 -8 22 -7 34 4
50 16 22 23 25 47 16z m422 -34 c-10 -45 20 -49 48 -6 12 19 26 35 32 35 15 0
55 -51 57 -74 0 -12 2 -28 3 -36 2 -26 -16 -57 -41 -71 -35 -18 -48 -1 -36 44
9 34 1 57 -20 57 -19 0 -48 -46 -48 -77 0 -26 -6 -36 -28 -47 -17 -9 -34 -11
-42 -6 -32 20 -2 129 53 188 27 29 30 28 22 -7z m-812 5 c24 -18 27 -40 12
-90 -16 -56 -38 -61 -29 -7 5 33 3 42 -11 47 -21 9 -36 -12 -33 -46 2 -20 -4
-29 -32 -43 -54 -27 -110 -7 -110 40 0 22 3 24 43 20 48 -5 93 15 103 47 7 20
25 45 34 45 3 0 13 -6 23 -13z m470 -7 c-1 -8 -12 -42 -24 -76 -20 -59 -37
-80 -40 -50 -9 78 -4 100 27 132 19 18 40 15 37 -6z m1401 5 c8 -21 1 -28 -18
-21 -9 4 -13 13 -10 22 8 20 20 19 28 -1z m3222 -67 c-45 -91 -166 -203 -166
-153 0 8 16 23 34 34 37 22 65 68 87 144 11 39 18 48 39 50 34 4 36 -13 6 -75z
m-4814 37 c21 -15 38 -29 38 -33 0 -3 18 -26 40 -49 41 -45 59 -87 44 -102 -6
-6 -18 -4 -30 3 -103 59 -117 64 -203 69 -31 1 -47 8 -57 23 -35 54 26 127
100 118 17 -2 47 -15 68 -29z m233 -37 c-14 -28 -25 -58 -25 -64 0 -7 -4 -13
-10 -13 -22 0 -2 90 26 121 29 32 34 10 9 -44z m4340 24 c-7 -21 -18 -48 -24
-60 -28 -53 -31 -61 -31 -73 0 -23 -42 -99 -62 -109 -15 -8 -25 -6 -45 6 l-25
17 32 33 c28 28 30 36 20 54 -8 16 -17 20 -33 15 -38 -12 -54 -43 -50 -96 3
-55 -5 -59 -64 -31 -39 18 -123 95 -123 112 0 15 11 14 48 -5 72 -35 126 -18
207 66 51 54 129 110 152 110 9 0 9 -8 -2 -39z m-5177 -8 c10 -21 26 -51 36
-66 28 -41 7 -55 -29 -20 -40 40 -63 82 -58 104 8 31 33 22 51 -18z m1595 -24
c16 -63 49 -79 69 -34 16 36 33 31 51 -14 32 -78 2 -171 -53 -171 -46 0 -91
56 -60 75 13 8 13 51 0 76 -20 36 -66 21 -74 -24 -9 -54 -31 -62 -66 -24 -37
38 -10 110 52 140 48 23 71 17 81 -24z m180 32 c61 -23 143 -123 178 -216 29
-77 20 -225 -14 -238 -18 -7 -57 11 -57 25 0 7 4 19 9 27 12 18 -24 121 -49
143 -23 18 -56 13 -69 -11 -5 -9 -12 -35 -16 -58 -5 -32 -11 -41 -25 -40 -31
2 -30 34 2 96 41 80 48 161 19 226 -11 26 -21 49 -21 51 0 7 18 4 43 -5z
m1386 -33 c79 -61 110 -173 81 -288 -7 -25 -13 -53 -15 -62 -2 -9 -9 -27 -16
-40 -7 -13 -12 -26 -11 -30 1 -3 -5 -9 -13 -12 -8 -3 -16 -2 -16 2 -1 4 -3 16
-4 27 -2 11 -6 38 -9 59 -7 53 -57 154 -95 192 -39 42 -71 94 -71 119 0 29 26
63 53 67 32 5 88 -11 116 -34z m889 33 c8 -5 12 -21 10 -37 -4 -38 -34 -45
-48 -10 -16 44 4 69 38 47z m-84 -17 c8 -21 -19 -64 -39 -64 -15 0 -17 5 -17
35 0 39 3 45 26 45 13 0 27 -7 30 -16z m-1906 -57 c2 -10 -3 -17 -11 -17 -16
0 -30 24 -19 34 10 10 27 1 30 -17z m150 -18 c4 -44 -36 -89 -79 -89 -27 0
-28 1 -24 52 3 50 16 71 30 49 11 -19 35 -12 35 10 0 14 5 19 18 17 12 -2 18
-14 20 -39z m-1819 -15 c-6 -8 -15 -14 -20 -14 -14 0 -11 28 4 33 20 7 29 -4
16 -19z m2364 -24 c3 -10 0 -26 -7 -35 -14 -20 -81 -30 -131 -21 -41 8 -38 26
4 26 15 0 43 11 62 24 42 30 65 32 72 6z m-3139 -33 c-10 -27 -44 -21 -44 7 0
13 6 26 13 29 18 7 39 -17 31 -36z m1340 -9 c-11 -18 -20 -35 -21 -37 -2 -2
-5 -2 -8 1 -3 3 2 24 11 47 11 28 20 39 26 33 7 -7 4 -22 -8 -44z m4251 -4 c0
-19 -6 -30 -16 -32 -21 -4 -29 17 -18 46 12 32 34 22 34 -14z m-2735 -9 c131
-53 182 -61 272 -43 33 7 8 -27 -39 -54 -63 -36 -96 -39 -148 -17 -26 12 -61
17 -102 16 -53 -2 -63 1 -63 15 0 20 -44 71 -53 61 -4 -3 -10 2 -13 12 -10 26
23 47 61 39 16 -3 55 -16 85 -29z m-379 -25 c27 -15 26 -79 -2 -114 -11 -14
-24 -26 -28 -26 -6 0 -7 53 -1 70 1 3 1 22 0 43 -2 40 1 42 31 27z m117 -20
c31 -29 28 -71 -8 -109 -50 -52 -61 -43 -53 42 7 89 21 104 61 67z m-1701 -21
c-14 -23 -26 -24 -34 -3 -7 18 13 35 33 27 10 -4 11 -9 1 -24z m1833 6 c30
-18 -2 -68 -52 -80 -27 -7 -28 -6 -26 36 0 24 6 47 12 51 12 8 49 4 66 -7z
m2790 6 c0 -6 -4 -13 -10 -16 -5 -3 -10 1 -10 9 0 9 5 16 10 16 6 0 10 -4 10
-9z m-4500 -21 c0 -10 -32 -30 -48 -30 -6 0 -8 9 -5 20 5 20 53 30 53 10z
m-90 -44 c0 -16 -26 -39 -38 -34 -15 5 6 48 23 48 8 0 15 -6 15 -14z m1288
-14 c4 -26 -16 -65 -29 -57 -10 7 -12 68 -2 79 12 11 28 0 31 -22z m-1452 5
c8 -21 -13 -65 -36 -77 -12 -6 -23 -10 -25 -8 -2 2 4 25 13 51 16 46 37 61 48
34z m2645 2 c36 -12 68 -41 88 -76 24 -46 7 -155 -29 -188 -28 -26 -45 -8 -30
31 34 87 16 164 -43 189 -38 16 -70 4 -86 -32 -15 -33 -14 -40 9 -63 19 -19
22 -19 44 -5 38 25 45 -17 10 -56 -38 -43 -102 -11 -122 61 -29 108 49 175
159 139z m-471 -41 c73 -37 92 -107 37 -137 -19 -10 -35 -9 -97 8 -77 22 -183
36 -235 33 -107 -7 -125 -5 -125 16 0 17 41 42 70 42 9 0 20 4 26 9 9 8 84 29
139 38 17 3 32 7 34 9 14 13 112 1 151 -18z m233 -2 c7 -17 -28 -51 -42 -41
-12 7 -15 38 -4 48 11 12 41 7 46 -7z m1734 -4 c22 -12 22 -45 -1 -40 -6 1
-23 -1 -39 -5 -22 -6 -35 -2 -62 20 -18 15 -32 30 -30 33 7 11 109 5 132 -8z
m-1709 -71 c8 -4 13 -11 13 -15 -8 -60 31 -113 91 -122 48 -8 60 -30 28 -54
-29 -22 -62 -17 -112 16 -39 25 -46 42 -27 61 6 6 9 21 7 34 -2 18 -9 24 -28
24 -21 0 -27 -7 -34 -37 -5 -21 -13 -38 -17 -38 -14 0 -15 37 -2 82 10 35 19
48 36 51 12 2 24 5 27 5 3 1 11 -2 18 -7z m-1514 -16 c8 -9 13 -22 9 -30 -13
-36 -95 -24 -88 12 2 10 4 21 4 26 2 13 59 7 75 -8z m2356 -22 c0 -4 -12 -32
-26 -63 -23 -50 -29 -56 -54 -54 -42 3 -52 12 -40 35 6 10 8 19 4 19 -14 0 22
33 55 50 39 19 61 24 61 13z m894 -60 c10 -32 -16 -103 -57 -155 -19 -24 -67
-48 -83 -41 -25 9 -14 79 18 115 16 18 32 44 35 58 7 30 14 35 52 38 21 2 31
-3 35 -15z m-1890 -1 c2 -4 1 -14 -4 -21 -6 -11 -10 -9 -19 8 -10 17 -9 21 3
21 8 0 17 -4 20 -8z m-381 -51 c5 -5 1 -16 -8 -25 -15 -14 -18 -14 -46 6 -16
12 -29 25 -29 29 0 10 72 1 83 -10z m152 -23 c31 -14 32 -24 3 -32 -25 -6 -54
16 -44 33 9 14 9 14 41 -1z m748 0 c12 -34 -50 -79 -126 -93 -51 -10 -50 16 1
39 21 10 52 28 68 41 33 27 50 31 57 13z m-822 -47 c0 -3 2 -13 4 -23 5 -26
-33 -30 -50 -5 -14 20 -14 23 1 34 15 11 43 8 45 -6z m1246 -47 c7 -12 32 -31
57 -43 36 -17 47 -28 55 -58 14 -50 0 -67 -52 -60 -73 10 -140 72 -151 139 -5
32 7 43 46 43 23 0 37 -6 45 -21z m1012 -12 c7 -13 6 -23 -1 -30 -17 -17 -48
-15 -48 2 0 44 31 61 49 28z m-2031 -24 c5 -7 7 -33 3 -58 l-6 -45 -22 23
c-25 24 -28 43 -13 73 12 22 23 24 38 7z m949 -184 c3 -8 -1 -23 -10 -31 -13
-13 -17 -13 -30 -2 -7 7 -12 21 -9 31 5 22 40 24 49 2z"/>
<path d="M1350 6721 c0 -11 4 -22 9 -25 4 -3 6 6 3 19 -5 30 -12 33 -12 6z"/>
</g>
</svg>
